<mxfile host="65bd71144e">
    <diagram id="QR3U4hT-JB84P7Sl07HQ" name="Page-1">
        <mxGraphModel dx="1931" dy="1621" grid="1" gridSize="10" guides="1" tooltips="1" connect="1" arrows="1" fold="1" page="1" pageScale="1" pageWidth="850" pageHeight="1100" math="0" shadow="0">
            <root>
                <mxCell id="0"/>
                <mxCell id="1" parent="0"/>
                <mxCell id="9" value="&lt;font style=&quot;font-size: 16px;&quot;&gt;1&lt;/font&gt;" style="ellipse;whiteSpace=wrap;html=1;fillColor=#a20025;fontColor=#ffffff;strokeColor=#6F0000;" parent="1" vertex="1">
                    <mxGeometry x="-760" y="60" width="40" height="30" as="geometry"/>
                </mxCell>
                <mxCell id="55" style="edgeStyle=none;html=1;entryX=0;entryY=0.5;entryDx=0;entryDy=0;fontSize=16;fontColor=#FFFFFF;startArrow=none;startFill=0;endArrow=classic;endFill=1;fillColor=#60a917;strokeColor=#2D7600;" parent="1" source="10" target="42" edge="1">
                    <mxGeometry relative="1" as="geometry">
                        <mxPoint x="1090" y="110" as="sourcePoint"/>
                    </mxGeometry>
                </mxCell>
                <mxCell id="10" value="TRAIN.PKL , TEST PATH.PKL&lt;br&gt;ARE SAVED&amp;nbsp;&lt;br&gt;with their corresponding sizes.&amp;nbsp;" style="text;html=1;align=center;verticalAlign=middle;resizable=0;points=[];autosize=1;strokeColor=none;fillColor=none;fontSize=16;" parent="1" vertex="1">
                    <mxGeometry x="840" y="90" width="240" height="70" as="geometry"/>
                </mxCell>
                <mxCell id="19" style="edgeStyle=none;html=1;fontSize=16;endArrow=none;endFill=0;startArrow=classic;startFill=1;fillColor=#e51400;strokeColor=#B20000;" parent="1" source="11" target="9" edge="1">
                    <mxGeometry relative="1" as="geometry"/>
                </mxCell>
                <mxCell id="21" style="edgeStyle=none;html=1;fontSize=16;startArrow=none;startFill=0;endArrow=classic;endFill=1;fillColor=#e51400;strokeColor=#B20000;entryX=0;entryY=0.75;entryDx=0;entryDy=0;" parent="1" source="11" target="14" edge="1">
                    <mxGeometry relative="1" as="geometry"/>
                </mxCell>
                <mxCell id="11" value="GROUPPING" style="text;html=1;align=center;verticalAlign=middle;resizable=0;points=[];autosize=1;strokeColor=none;fillColor=none;fontSize=16;" parent="1" vertex="1">
                    <mxGeometry x="-610" y="60" width="120" height="30" as="geometry"/>
                </mxCell>
                <mxCell id="26" style="edgeStyle=none;html=1;fontSize=16;startArrow=none;startFill=0;endArrow=classic;endFill=1;fillColor=#e51400;strokeColor=#B20000;" parent="1" source="12" target="25" edge="1">
                    <mxGeometry relative="1" as="geometry"/>
                </mxCell>
                <mxCell id="12" value="ANOMALY LABELS &lt;br&gt;AND APPLY ONE HOT ENCODING&amp;nbsp;&amp;nbsp;" style="text;html=1;align=center;verticalAlign=middle;resizable=0;points=[];autosize=1;strokeColor=none;fillColor=none;fontSize=16;" parent="1" vertex="1">
                    <mxGeometry x="-30" y="10" width="290" height="50" as="geometry"/>
                </mxCell>
                <mxCell id="22" style="edgeStyle=none;html=1;fontSize=16;startArrow=none;startFill=0;endArrow=classic;endFill=1;fillColor=#e51400;strokeColor=#B20000;exitX=1;exitY=0.75;exitDx=0;exitDy=0;" parent="1" source="14" target="17" edge="1">
                    <mxGeometry relative="1" as="geometry"/>
                </mxCell>
                <mxCell id="14" value="&lt;div style=&quot;text-align: center;&quot;&gt;&lt;span style=&quot;background-color: initial;&quot;&gt;SESSION&lt;/span&gt;&lt;/div&gt;" style="text;whiteSpace=wrap;html=1;fontSize=16;" parent="1" vertex="1">
                    <mxGeometry x="-420" y="60" width="80" height="20" as="geometry"/>
                </mxCell>
                <mxCell id="23" style="edgeStyle=none;html=1;fontSize=16;startArrow=none;startFill=0;endArrow=classic;endFill=1;fillColor=#e51400;strokeColor=#B20000;" parent="1" source="17" target="12" edge="1">
                    <mxGeometry relative="1" as="geometry"/>
                </mxCell>
                <mxCell id="24" style="edgeStyle=none;html=1;entryX=0;entryY=0.5;entryDx=0;entryDy=0;entryPerimeter=0;fontSize=16;startArrow=none;startFill=0;endArrow=classic;endFill=1;fillColor=#e51400;strokeColor=#B20000;" parent="1" source="17" target="18" edge="1">
                    <mxGeometry relative="1" as="geometry"/>
                </mxCell>
                <mxCell id="17" value="READ CSV" style="text;html=1;align=center;verticalAlign=middle;resizable=0;points=[];autosize=1;strokeColor=none;fillColor=none;fontSize=16;" parent="1" vertex="1">
                    <mxGeometry x="-270" y="60" width="110" height="30" as="geometry"/>
                </mxCell>
                <mxCell id="28" style="edgeStyle=none;html=1;fontSize=16;startArrow=none;startFill=0;endArrow=classic;endFill=1;fillColor=#e51400;strokeColor=#B20000;" parent="1" source="18" target="25" edge="1">
                    <mxGeometry relative="1" as="geometry"/>
                </mxCell>
                <mxCell id="18" value="RAW STRUCTURED LOGS" style="text;html=1;align=center;verticalAlign=middle;resizable=0;points=[];autosize=1;strokeColor=none;fillColor=none;fontSize=16;" parent="1" vertex="1">
                    <mxGeometry y="115" width="220" height="30" as="geometry"/>
                </mxCell>
                <mxCell id="96" style="edgeStyle=none;html=1;entryX=0.5;entryY=0;entryDx=0;entryDy=0;fontColor=#FF33FF;fillColor=#e51400;strokeColor=#B20000;" edge="1" parent="1" source="25" target="34">
                    <mxGeometry relative="1" as="geometry"/>
                </mxCell>
                <mxCell id="25" value="SESSION WINDOW&amp;nbsp;&lt;br&gt;group by blockIDs" style="text;html=1;align=center;verticalAlign=middle;resizable=0;points=[];autosize=1;strokeColor=none;fillColor=none;fontSize=16;" parent="1" vertex="1">
                    <mxGeometry x="440" y="80" width="170" height="50" as="geometry"/>
                </mxCell>
                <mxCell id="30" value="anomalies_labeled.txt" style="rounded=1;whiteSpace=wrap;html=1;fontSize=16;fillColor=#fa6800;fontColor=#FFFFFF;strokeColor=#C73500;" parent="1" vertex="1">
                    <mxGeometry x="40" y="-20" width="170" height="20" as="geometry"/>
                </mxCell>
                <mxCell id="33" value="dataset/log_structured.csv" style="rounded=1;whiteSpace=wrap;html=1;fontSize=16;fillColor=#e51400;fontColor=#ffffff;strokeColor=#B20000;" parent="1" vertex="1">
                    <mxGeometry x="-310" y="130" width="190" height="15" as="geometry"/>
                </mxCell>
                <mxCell id="39" style="edgeStyle=none;html=1;fontSize=16;fontColor=#FFFFFF;startArrow=none;startFill=0;endArrow=classic;endFill=1;fillColor=#e51400;strokeColor=#B20000;" parent="1" target="38" edge="1">
                    <mxGeometry relative="1" as="geometry">
                        <mxPoint x="525" y="190" as="sourcePoint"/>
                    </mxGeometry>
                </mxCell>
                <mxCell id="34" value="sessions.txt" style="rounded=1;whiteSpace=wrap;html=1;fontSize=16;fillColor=#fa6800;fontColor=#FFFFFF;strokeColor=#C73500;" parent="1" vertex="1">
                    <mxGeometry x="295" y="160" width="460" height="20" as="geometry"/>
                </mxCell>
                <mxCell id="35" value="dataset/anomaly_label.csv" style="rounded=1;whiteSpace=wrap;html=1;fontSize=16;fillColor=#e51400;fontColor=#ffffff;strokeColor=#B20000;" parent="1" vertex="1">
                    <mxGeometry x="-300" y="10" width="190" height="15" as="geometry"/>
                </mxCell>
                <mxCell id="40" style="edgeStyle=none;html=1;entryX=-0.011;entryY=0.397;entryDx=0;entryDy=0;entryPerimeter=0;fontSize=16;fontColor=#FFFFFF;startArrow=none;startFill=0;endArrow=classic;endFill=1;fillColor=#e51400;strokeColor=#B20000;" parent="1" source="38" target="10" edge="1">
                    <mxGeometry relative="1" as="geometry"/>
                </mxCell>
                <mxCell id="38" value="" style="shape=image;verticalLabelPosition=bottom;labelBackgroundColor=default;verticalAlign=top;aspect=fixed;imageAspect=0;image=data:image/png,iVBORw0KGgoAAAANSUhEUgAAAWYAAABmCAYAAAD4UTuiAAAABHNCSVQICAgIfAhkiAAAABl0RVh0U29mdHdhcmUAZ25vbWUtc2NyZWVuc2hvdO8Dvz4AAAAmdEVYdENyZWF0aW9uIFRpbWUAbWnpIDMwIGFnbyAyMDIzIDE3OjQ5OjMyE8/quAAAIABJREFUeJzsvXt4k9eZ6PvT7ZMsyZIlWZYE8gVbBiKugdolBBogaUKHKdnNoWSXNnPS7J7sXrJnOsnM9DrpnkzOTJppaXKaNm3aM02bSTptGaYlTeMwCSQNBGoaYkhwsbHByAJJlq2bdf10239IxuZiy8bmFvR7Hp4HWN+31rs+rfWud73r8krm1n44z8UiMVP/gTuwqlWo1GpIRRDzGlQqGZlEAF/nz+keyE6ch34VH7xpCbHON5E2L0OTVzLcsw/p/DUoj/8bB3oCo486P8OyeiVDh3/M4VOpM/+vbf4ULQ49wSM/ocMVR++8l2X1msJzfgeL196KKXWYg2+8TjgP2rmfoqXJSPhPz3LQZca5bgOWfBeHd7/CUA7Q3cQHV7agDuxh74EAjes2YvC+zmn9TcwSAP8eTutupSHzOvsOHEacqH7CgonL74sUH1Qzu+XTzDXF6N/3LD3hi/xNypQpc80jnd7bcjLxCCjVMNyHL5BCrpKRHOzC7+9lKFJCKQMolMhJIbcsRjNwGH8K5JYFGOjD3R8Y86CRKoMa8gMEA6kx/69GbzJCPkxwKF54rko3+pzajEYCpGKk8oDMzqxZRsgHCAUioNSjkgPpYjoyDLXzUEuyBD1HESVK5HLIqR3YpUdwD6ZAPY9Z+hT+k0cmVspQuvwRZDb0ehmkPQSHS3+2MmXKvH+RT+vtrAePL0ZdbYRT773E6erNWFJd9HS8gj89uSykchVyiRqDIUzP3n4UN67CYDIjntqHLwVyw2JmmzQgMWKtBHJyNPabqM9FCPUfIZytxaADUm5CcUCwY6gE4h6CSUDIFArSzaOxCTKmJcyuAFJFBSiNIWYAtYMGR5yw0ERDrY5McB/d7jgISuQSUJvMDL33KtGq+ahMdogf5F3/JAaefInyR9DVoldAbsBNODe5b1emTJn3J9OzmNFhc8xH7j+AK+6gsd5I/OSBSStlAKlCiRQQvQc5FZcjlQIE8JzsI4cSU+NqGptbaHQ0oZYAMjM2RwuNDXbkGcBgRy+DTLCf4TxIDTYqpSAG3cTzQKSL0+EUSI1YHAsQkgEyQC7kJpwHsj0cP9aHiA6zYxWOWiNJ7x7eeftA4X25BgVAoouTpyNIJTKQZAm7DhOdjBOoVPlF1CYbKmA40E9m8p+vTJky70Mk0/IxXzPIEDR6SAYQxzNyZTrUajmZ+ATPXMryy5QpU6bI9FwZ1wxZxFigxCMR4pfMtzuJ8suUKVOmyDRdGWXKlClTZqYpK+YyZcqUucooK+YyZcqUucooK+YyZcqUucooK+YyZcqUucq4bIo5v8xO+LPNxFoUl6vIMpcVK8kVmwivbL1K92Ff7fKVKTPKZVPMmdXzGfjqMobWVUwrn/jTd9Ht2oTvLtkMSTY18vd8iGOuu+l7zHR2QpMd/2//nJ5jd9N9ofT3O1IHkTvvx3fXelJX49g7U/JJlzL48E66n3ycYe2MSTc+FRs5/eROuv/hQZIX0Vsza5/g2Hd30l38415bN/7DsgRffGo3h5/qxzle9xq3/lpStz7KyX/+baG8c9JvvG8/XdsPcZ9l6nW4Him7MmYI8e5FhBZrkPa5MfzyGLr25JUWqUwZZO52qt5qQ++Klny2em0Pn5wrZf+vbXRO9SCUchWBj7SSUgZQt7dh2NuOMOZKm3d21LJfGOB/fCqAbopZX49ctgMmiidfpfnJy1Xa5SdTI5AnS8WP9mP+5XV4vC+3h5qv3E7NlZZjPK52+S4RkmMvYD4G4gYnkbqJTPwEH//oALqojRf3XoRa0BjJKkDi24P5uWcQzk0ftLDzUDcrPtTPR39i5PnyeasJmYZilhH96cc4vfAk9pUHUI8ZHXOfWUPvw1oMn/wt1bab6fmWnZF7eVTfe5m6b0bO5BF7+k5ObQDtC33kPtxIQp1E84O92J4MIoGCi+DbywkvUKB4890LjrbpzUvxP9BIzC5F5h2k8qmDVL8QIfuF2zjxkALTppcxHhzzwgInrhcXIf3eb7F/OzZxNTU6hh9bweB6Hfk+N6Y3z55k5D69ht5/sDByrn34W5sY/hYIL7xKw5eHJvsxp4GW1NoH8a9rJaETkMS9qI7toObZbQjFj56v24T/4xuJzraSzXipeHcH5m3bUCaKdXDej++/rSNmMZJPRxE87Zh+9hha/2TSHQS++n0GbUVxUnuY/ZVH0Iy5LyVv34h/0yaidVZyKRfqP7xAzY5dyHOA5V5cX91C6vQuDENOIk4j+HZh+eFWNKESVbffz8m/3YT813/B7N3e0f+XtuL/xqOEvE/R9HQnoYnkm0T5ufn34/3ERmKaKOo3dqA4d5pfsZTQ3fcTXOggQwBlZxs1v3wWVXwVA//4MBHXVpp+2FZozwAIxO7bzqn57di/9gjqSd0tI5D8yON41zrJxHow/uIxjJ2FOudtmxj49BYi1aB8ZwcVs7YQnNWD+Z8+j8E3mbyBWYPcPjdH6kA1byTOTpqw/tKlDH7jcQLG4r9tm+j77ibIdWD72t9RecZQl/PG21XQEuD2mzM8/+J1cuj4IpnG18ki9MZgtYa0EfCMpqTnaMmnIiiPAkkP+u0iOccswotV4+SlIPZhI/rdA2TutBF9YBHRX/6eSo+K4UdWEFwmQ+KPIJm/gEGrAhi1SPNrl3HqsWbEbBLV4Si5BRaCj34IAi9j7g0jl9eTbpDBwTFWbIOOjDyNpqe0uyH92RV47zSQTyVRYcF/j4qxl4tIek5RtT1Gelk90QYZwlvHUXtBfnAyrgwnH7lpE4uF8+wLSHfwq33bOF7qJpOm+/HctYp0oIOqN1ygqyM+x0EaClaLbj3ez93PsDKAumsPsgon0db7OaUWqfvhDuTKdfjv2cSwwkvl3h0oZEZSzQ6SOgGtX4RS6URRHWyjymQlsXwpqXPl065j4HMPENaJCH2dyI1Oorc+SCYboO7FjjOP5e2riA/tQutZRahuPf51u9Bs7zg3t7PxuxCykDLXAWMUs9JKuhIUh1xIS8lXqnzlOgbv2URUB3JflMzKLcTVY9+sI3zfwwzM1yL3daKmjviNW3DrROqf2IXgh3yVlQww6tq2kjYJSPwuFJO98KtqHf5bvChDInmLk8F77kf5yCNoUk6Cn76fsA3kvh6Yv4nQRfi+dc4QTTIp7j4NkbEJpeqfC1DxxzaqTA5iyx2koz1UvudClnOd5coA8HdX4mYQ5w0RlC8ax/0tykzTlaHoiSGV60jPkZH8q9s5/eEEpi1vIrOrwO9GiAAHjmM+cJz0X91GZFzFDOof7aHmBxCecye+Fh2pOVCZmcVwqwxSPmo2v44+aGPg5Q8RGrF+kBG7pxFRnkb7j68w6ydJcltupu8xO+F77Ji+FkGRkZGeoyK3eREnv2pB/fjvMBm0ZDNRhKMlXA5yDbG1BvKk0X/td1h+KWP4p3+GZ+1oF5O8eQzzmxD/bi3RBlBuP0jNZF0ZEiPz7atYcaH1UFHkjX1wvEQWebOVNKA4sQvDr9sKVqhCYGSKkl6xkagWVC99HXtbD+Ag+KXv43euI1a1A73USloNEn8Hht89gyoqAgJ5afGmaU2JdLyo27ailq5iYOHS8xbWMss3EtGBon0r9c/tQmLewqmv3Ets5XribR2c6eOhXdT861ZUTRD7y/WkLXXk6RhjZV6AtAtlAKImKznjJrwPbSF9aCt1+62kZSKC1wUEJpTvDOOV39xKVAcS9zbs//IMCvsDuB7aOKpU7OsJz9WCbwezv/kUSpwE/vYJBuesJ9ywA7U/Sn5JHWmFk+hfPkpI2sasJzoRq0B2zMXk1yG9GL7/GapddYT++gkGGpYSnSugCa5j2MJo+VVbcH/lXuJTXBu3WxIoAb/3nMZYqv640Ly4FY1xC+4bHWSGOzA9fwFXBpDyK/FnwW5NYAbcUxPxumJaillyLIgiU0O6SUdiiY6MuYLkEh2KWTIkrgiKSQ+JaRT9SUCGrDj1ySsBm4aMDCRdA6hPApkB1Eeyo4pZrkOcI4NMCM3ugoUq3T2AMmMnVmsgHfAgRCBWq0M0VpM2qkgsNiLKNeTjPoRSLUOmJW0DMgHUu9NAGs2+AJK1M7S0nN/Dd351O9+ZRhaS7nY0iaVElz/IiYX3ouztQLf7WaqOegEBcZaVPJDc8H26N4x904poEuBEBxq3SLxuPa7/dxWCqxNt+zaMbxaVYqhE+oQIZGZZySOi6movPO9vR+27l9isOsQqzihmSciLLAekRKTFwSUPE5eRcyH4RTBbSddbSeq0ZOc4EHvrSBNAc7r0gteZ7zhO+XmTlSyg6G0vuIbc7agjG0kVfWp5Sx0pKShOdKBMA/Sg7gmAzYpoharTLiStRkSLk8RsLWmcJC0B0loQTvdMWj6inahdIuRcqHsD0GAlYzSSl1sRx5bv70A9CPEpNlGlsjCSp86J/JArUf8pkS66AYUcyot4/Xpieo6erghCVkbaYYPaCJqDAskFNrCBoj08c1s+sqMWqGQqm1AzYYQ+CNdWE5epUB8YIjm/hlRShaQ/ct5Ua3xynDERZnQT7Ay4MgLbsP2Ll8jqdcSancSd6xiY7yD37c9jdEHRoYHyvTY0Q2N6XS5KRUSEXCeGp76IsHoj0flOYg2tBDYvJSX/PLN3u0qnzyClFf25iAi+ADTXEa+3Qm8nylkO4rVG8lkvSl/J+DKTLl8yNnjBFAIZyH1e5CxFXOJAHO5Ek7WSWlJHmigVPm/pDM4gjvan7Jh6jVjGudHnJmScThkZLtjuOm3ugg9dbP3PQlVUyFEF5chpEzM93ZmKoPSA+CE7qdgg+v8Kk/6QnaQ6i9ATKf1+KTwx5FnI2w2IakCuITVnzBwtE0E4kQW5jtjagpskt7aGlByk/UEU8SRCXxLsNqINMdT/4UNosDM8B2R9QRSllGw2isIDyHWklgDIEOfrmbELrEdcGfWt5/+pc05uB4HSSH5oD/rtjzDrm39B/Us9SKR1JJqMQGE6X7BUd2Ha9hTV256ietszVB1sR+kH0JKjB83OrVj+v88w53ttCDmB+FxnsZ6l0idCRH7aiwSB5LzWwvPm1oI1F3chlFrcm0T+itMuJIo6hp1WlO+2UZEo/J3h832cF4N0yIsMSNvqCvpIV4dYOZou8blQ5iA9p+gmUTiIO4yQ8yJ4RfC6UGAksdBBrn8XOrdAYqGTNF6E01MYOLRO4rMEwEq8yQpEkQcCSIa8KHKQmeNElALGpSSqL1CPZKGsrN54fiLg7tcQIYd5VuIsa7ZU/aeCsi6GXQaDpyooR0+bmOlZzKmCYsytNZB+swf1O2kUD80jJY+h6UkDKuIPOYnZIDdfQx7IrHbiN4vg8WB4cmDi/P2nqXw7S3RlPQM/yaINVxOeN/aBLJoXjiOsaSb61Ttw/3mCzGIDmUwMw3NupIBwLAZ3mUhGTlLdNkjm75yEbKCezMCRiaHZHUSy2EDwmx8i/xbE7hzfTz5lZsCVQfP9nLy7DlV3D4oYiAvryBNFHihM4xX729Dc8gDRtY9yck4HyqhA1uIgoWxn9t93Ilesw/cPW8h2d6AajJKrayUtBcWQt6DQlSXS7RsZXOkgL7OSUAIyB+FNDxLPguqtp6h8ewe6252EWx/kZM1GpEYnSYWIanfbJHcjTIzE60VBK0mLF2NvOyrHAwQXCkiOulDkJiFfKRl629FE1hGefy+n73GgsK4ipmDUanS3oe9eT3L+Rk59yYGSOuIWkPa2oe8TQepCiELIXof6nU5UWS/ijQ7yiT1THJisBL7wfeIhLQm7ANF2tN0ipPagHdpIwLaJUw85UGidxMfKV0R+qgc5DlIrHsBT0Yk8HUDzu2dRF709qT8ZeSfRzy3zQtippHey9Z8CTc4IOgR2HqwsL/yVYJrehixCX2G7mfLIINJDg6jiFCzpo4BcILm+meDm5jM7MjKL6wlubib059WT+G2TVH5tP4bDSbI31hPTe6h68+yeJHn1ILO/fAyNR0biRh05vw/D139PdVvB/SHvDSMHJF1DqCKDKI9mgTSKSezIAFD8YD81L0WQmW2EW0H3H76LmHJfQvydaLwCKec6gresJ17hRfvaU5gOFXtcaAe2p5/BcCxAztZKdF7BWtMeKPoM0y7UR71k61sJrd1IuA6Uh17A2lbcEVEq3dxKaPV6giuLFqPUSnTleoKr1xG1ANFd1Dz9DFV9UTJ1TlJSL9rXtjLrpRI7LiaLrwchW5BT5QmgPFkYMBQ+V6Fxl5KvFIldmJ/fgSYgkLixlbR7F/qz9uC60P/0EWre6UFS5SReJaI89AL2H79QWNjLuRACAAGUJ1wo+npQABK/C2EqA1NoD9V7AmTMWiShTozPP4MmAeQ6MD37LJW+KBm7g+zpNvQjO6TGdrCjL1DzRieCtI7hFesJ3txKSjMmPVzNiwcEaBrklrEWd8n6T5YEt7cMw6CNFw+Uz7WV4joJLVWmzPuXfIUWSaI4ECtWMfC/HyZUUdxHnJj43bEo557gP588TurfVvKx56d3dcJ5ed9wgt9tPU7kpyv52L/PbN7vR67vXd4aGXm1dFxfqSSeRlLi/EmZS4hUIK/Ujv/75KJIzt1GcE0hkK8Yv34gIk2U2lkikLjrx/jmeFF6o2B1EtWB9Fg7FVNQygCp7nq++aso91nDNFEx6s6YAZzzErj3zuXp35SV8mS4ri1m8eGP0PeZ8ff9CM+9SsPXLsfpvTIXxPllTnxuHePN+CWuF2j4l2ensBf4KkOxHs+3HmR4vJl9rgPbl0tZvQLi2ofxrnMi6rTk0wGUvXsw/eIZNIFredC6vrmuFXN+nonUHPm4vm7ZiUGUXdfhvRdXCxUOkvXWcX8fadyF0uW6unz+U8KION85wQ7MAKqjneWbxq5DrmvFXKZMmTJXI+XBuEyZMmWuMsqKuUyZMmWuMq6jXRky5BUa5PkUYjJ10adKLxtSJYKgRCrJICbiV5W8UvMalt9gJ336NTp6PKVfKHMZkCFXaZCPONyvlXZe5oLMuGKW6hfTOFvO0LGDJEw3UacdwNXTyxWP51HZyvKbW1CH9rB3/8FSNwpcOaRmZi/ZgMOiQyoBUkfo2P0awUmuBAiGeRjUkBzqInyJPnpljQOtRslQ4grcdl5hx2LUk4v24A9fgvNjlzr/S4WwgIW3rMEwMgcO7+MPbx0gfkWFKnOxzLArQ4dt3mps6hQxSRONC5ahJ3jllTIgGO2oJRAP9F+9ShkQ7KtxWHVk/Ac4evg1Og+/Q3jSy7NGbDfcgXPRMnSXzEklI+1vp/u9Vzk+cPkVl77hNpyL12C7yPsarnT+lw4P/Ydfo9tdGCyTIXdZKV/DzIzFLFUiKJVIdS3UGVMMHfKgafwzLJJ+ugeSSCl1tF6GylCLRp5iOJyi0tKAmgD+U30kcwBK1CYbFdIYw34/IkrU1TYqiBEe9JORGdEb1aTjWSpNZkR/FwmVA5MuSdDdSzwrQ2+sAeKEgyn0tmXohBhBbxfRsbpFYcRQbUerkpOJ9+Mf8JPJny9jLBBGXu3AUAHJYA/+8CS7gMKIocaOVpAjDvfgH4yc+S7ySjv6Cg2G2XakpBgODSCKWVLDgUlMR9VozTUoZXZMlUA6hrSyAZMGEuE+4uLk5Jer7RiMRlQKJWQjRAZ6CCezZ5chAYiQHA4QH7vBWGnGpNOQiw8QU9RiNmjIBI7gmyGrU9A3UKnUYDbpIB8hI7VjqsmSiXoIx4tlSJRozQ70GjWk/QR9fWfLKNOhNzegq1CSy0RIhvsJRgpuoknlXxIlquoGTJU6pLk4yaiHYCBwpg1JBTN6Yw1qlRopcZKBE/gjhW8v6BqolERICDYM8gF8Q2Cw1iIfPoonGC+0nSod0tQA4WwNZrMRYn34/MX2IfoZ8gQwVa8CUoSHLnQPjQxB34DJYESejxMdOEowMXY76MTyl7l8zIhiltvu4KbFDWfMb9XST1G4hsDI3GWtRN94fWKrT+bA0XIHZiLERR3q4uEgq/BvHOgNgHIec1vWYIgf5MCgH7FiMQs+cBPayD72DfrJ1axi6dJayMqQyiCXaiUnqJFLIJj7IR1uM4YqGeQzVM79BDZd4f6snN3Igb37iAOCZQ1LFi1GO+a0QqP3FQ6801WwsGUNOJZvwCwLEI5q0BfzyJyKMXS4t6TyFMxrWLh4MfozN3zeRLR3O293e8ihxrLgLuYaRtKUmOZuwJQPcPKtvrMHjwtRuYQFy1tQj/gXhQYalzVA3k/PG30Fy6mE/Fju4KZl8woNYuQi5GYHnW++hE8E9MtYtHwZqmIZGfcO9oZGL4JS193BYocRMRZAqjEW8hHN5F5/Bf90t4JL7DQs28jsM/dH6bAs2ICFLEPv/pjDcZBqFjB/+RosmjG3DzYd4fBbrzGUBmnlMhZ+YBUmFeRyIJUCwwf4w559xCeRf0lkNupbNtJoUEIuC1IZ5D10v/4rTiUBYTGL1xZdDSPfNx/H88efcHTIiH3pRupVWXIyGVJSNCTlCCoZJHTE33idhG0NSxfYyQz7yWjNxd+hBcPBZ+n0jQxMNRiMSsi5CQbP+egyM7VLN9BYoxudJs+/kZP7f87xcLa0/GUuKzOimHPBA3T2KnE2avAdeZOYeS0OwwA97x4mmhwoPRU32NHLgFQAd8cOkrM3srhOh1woKA+poRa9BMSAm2ge5MZa1BJIBt0kAYOpBmnWQ/eeQ+hXbsCcOMTb7xlZvtxBJpMBbS2G4l2GCfdL/CnuYMHyxagrbRgESFbcxJKli1FHD/Pevn0MZe3MX7EBi2UBZqGLUyKgq0WvAPIqMv49dLw3QFqwUZlxl7ZoK1tYeONi9GIf3fv3EBRuZMmNC9DaneiPeQjmU/jf/TlhYys3LmxCOriPjqN9pEkhTuZ+xPgR3t3bg95xF/OtcoJHt9M9mIFcjOTIqbES8gtZN90HDhAMBhCzama3fJq5JjOVFRQUc/Qwh/Z2nSkjHPCMqbcag8EIZBEH93HkHT1zV67CoNAglzI2EtjFkffj+uPP8VWvZul8Oznv67zT4yFHlkwsBYoGHB+4FYvcw8kDr+AKy7Es/jhza+ZjMb7OkE+JZd5NmJQBTr5VUERSlQ1zZaowaJXKfxKoG9bQaJAT/NO/cbgvQE6mw2DWkRhRaooY/sPbOTrkISmC2rGZDzabUWs1EK2lSg3J/t/wbmo1Lc0aho5sJ9b0CRyyFNm8DL2pGB0i20/3W68iNN3JfKsavckIvuICrMqGrgKI9BM+y1+nxrL4ThxmGPrTrzjaH0Bo2MjyuTZss20cD7tLy1/msjIzijkeQ2WsIed/neM+cMxVEu3bQ//A5BaHtAYbAhA+/jqnQhH0s+RAllik8L7eZENKlvCQB5ChN5qRjkzXJGYMRjW5YDt+iZFZchj2dJFT34E8H2A4kkWoLviXxVNv0nnSTU4iJ5xejFqeIZNVY3EsQyvNEh1OobYuRo3yzOr2iPJRm+wIQPLkS7zXPaKU/JSOkaHE7FiGXhbH1/kKp4IpkPYxnFuASiIvWi9ZxJgfuU2HHAj7uwgPT+E+62yE+LARc4US8h6GvB7i5xzjnVh+GXKZGv2sNcyeq0QmkSFoZEBktGOOlKEulBEMjFFYsloMVUCqh+NHe4nLFxcswvgAwzMSWCBFctiPslaHlCzBgS6iw6Plq+pvYrYaMqEAWf08ZutBOfactkSPRiMDiRHbDbeBp4cBby8+/+TynwwVGh0gQ1+/hrmKHvzeLoa8oyFy5DI5ctN85jesRiGVIVXqgSxiMobcYKeSOJ7TBRlI9eAf0mBeCJnAAHGJjVlVBQu279AehuKgCobBqiaXGf3AcqOdSskF/Mv6ZTRa1JByE5fZsTXYQVPo+iPtu5T8ZS4v01PMEjP1H7gDq1qFSi2DVAvLb9agEmRkav+MucM/p3uglLlUHPXzAYaGIoCRqir1mM5vxmAo/juYAokNg6E4XQtlQVmwNuKn3WBcg5oA/YEUekcNpI4Qio/4l1MMefoKDbHCTKUCiHgIS2uZaypMf7WzWhgbxzIXH2A4XZDRYCzI6DvtmdoWJKkds0kJYhe+wWJn19agkQIhP8NnZhNFqzMfIRK8iCADgh19JZDwEDzPyplIfhlax2aWN5uRpvwMBQLEJUbMOmDYc7blpbRj0ALxc8oozngyAz0EcyA12KiUgBh0E58x/6SRqiod5P1nDwroMFvMAMj1C2jUj0nKehiOZCHvwd11BN0N89Eb5lFvmEd9s5vuvds5lSiV/+QIntiHT9uKWW/H5rBja2rF1/Ecnd4U8uo1LF++GDVxwv5+htNK9DZjoU2HslQ6apBmPASjRgwGJbmQm7DGjkPIMhzwkNMuQa8Ewn34C34pNDojkGI4PGL8yNAbbaMGyxi0loaC60Npp7bZPpqQzxIL+0vKX+byMz3FLJWTiUfAYIThPnxRDWabjuRgF8F4hKHIJOawsloMOiDlJhQFBDuGSkY7v9KGTgsk/ERTINXPw1ycrgVFkNuK1sZQjMpaM1Kxh2DMhqVKRibQzzA2HFUyyIcRk1lAhtY+D60EogO9JFXzqJACwQm20Y3IKHqYss5U6lHJgXiMVB5AhqF2HmpJlqDn6Gh5Mht6vQzSHoIXEd5BWmVDL4VM0HO+MpxIfpmDhgYz0pyHnn2/oj8BqoaPY7GCGPIQHZOXtKqWSilkzlG4hRlPlmDRvaE32ZCTZShw9iCgMi/GVJEl7j9CcIo3n6GwnRl4ImMHBYmOigog10fnqzvwjdPkkt7XOOh9DbmmgYYlG6jVm6nUAiNyjJf/JMkNH6bzrcNIBTPmeRtw2nVU6nTgjWFpXIBamsJ/+AXeOxUH/So+OLsBom7CKTM1RjW5cD9hhZ2GChg+6UFuWIyaMN6hOILJhlYCuVSk0F6U87GZlSD24h8cqbARvb4wmxk+q9/JqNDogRSeP/6Qo4NTld9/4RfKXFKmp5g8v5wSAAAgAElEQVSzHjy+GHW1EU699xKnqzdjSXXR0/EK/sleAn7G2upnOF+0tqRjrK0KIxUSQGHG0nATtXULUJ3xL8swVNuQZtwFa8NYsDaGNXbmjrE2DEpAYsTiuIl00kZdvRGSXfSdDIC0oDDV+sXMbc7gj4OgNmOoluN7+5WCf7XKjl4BOZ97jIU7ScQYYgZQO2hwxAkLTTTU6sgE99HtHjPhLPqAcwNuwhdxKkBQF9wguar5NDpqSCf7OOX2FC7ImUh+lZEKOZADqcqM3riAuY4xriOJEXNDE2qZHKXRjhxICnZqHWZyw730+5LFGY+f4FCcUcvzHHeHxIZ9wRpqVQFO7j1CcKoVVBuK7cDG7OabqMoGGDrRRTQXLwQQVdVSt6AF6VAcqcpApcFGzrWd7gEw3bABc7qXoVCYjMyISpCB2MdQaDL5T+Lbz76V+VURfH4PyZwGjUoJRAgOBUBiK7hRyIBMj9bkoG7BkoJrLdRPVFnL3JEZn2mcGd/cgn9ZalzGXIcZqXUJZiFLtLt9dGFVokSuACQ1WJtXIY2nSPoP4wunEFMxQIe5+VZiKi8ZmRqNvhZtch8d3Z6J5S9zRZimj1mHzTEfuf91XHEHc+uNxPumoJQBrbGEtRX3MJxajEppw1aXYigNZ7YDSYpTv3A/YcFOgwqG+zzIjYtREyhYG0X/ctxzhHR1Cw4F5GK9dHe8WpTzCD1dDSya14DZsQYzQC5F3LPnzDRebSz6wAOeqcdizfZw/Ng89Dc0YHaswpxPEfXu4U9HDp5ldapNNlRAONB/UfFek4FehmJGDOomapubyJzy0O+ehPzxHgZCi9EabDSu+ARiqI9EDsgPFFxHuhYc80Z3YwCoapbRWAPR7l76B4vWeNJDKM75M54RKpsKOyKGexmYfPDqUaJ9+AMOZhvMWJrMED9I6HgXEODU0QOYlrSgn30T82cDZBHDRzgaygJG1HobNkMDI8HVcwk3Jw/tPrudjpt/aSoqbRhqF2CqK/5HNoL/6CscH8oCHvzeALYGI+YFH8eUcBMUCzKGhzzITcuoJFKY8dVPMOPLuvEM6LA1L4N8iujJVznUO8aazXvwudyYmuxoZy9DSxxP6AA+IHz8TU5V3cbsqgU4qhYUv4GH/kMDk5C/zJXg2rhdTqZGrZKTjEfITUdamQ6VkCKZuIDfTKpGpVEhzSQRU3EyM32WVaZDrZaTiQcQr7r2LkNQ65FmwiQviXBKLMvuxWkMFNwllyT4QKEOckmGTDJy3jeWCrrCXvtMhGTiEhxVlqlRqVRIySDGI+ft/ZWqjKgkMeIXansTUXkTHzxzYvUQqPVI0wGSFxEvUa4yIiggkwojnvuBSshf5vJybdyVkY0Tn4nOnI2Mbh87l1yc5PAlPCuVjRC/akMDZxHjl3Daql6ApTKG78hLl0gpw0gdxjvVmRMjJC/lkc9snGRs/PaTSwYu6iSeYBh7YjUL0/idMskAmfH85yXkL3N5uTYUc5lrm/hBDr9x8EpLcU1SIWQJh9wMDZQX4a4nrg1XRpkyZcpcR5TvYy5TpkyZq4yyYi5TpkyZq4zrRzHbTEQ/00x4w/hRsa8oV7t8VxwryRWbCK9svajthGWufvL2dYRv2UTMri398Puw/LFcP4p5Ti1DDy9j4D7L1RnV4XLIV+3lp9tf47XPDlO400kg+j930v3d4p8nf0agTiiRyTSoWMH//vMn+f8XNTDlUqQOInfej++u9aQUpR8fF/O9uJ/cybEv3ctF7DibPtKlDD68k+4nH2f4rP6vJXXro5z8599y7Lvnppv42Ie+xfZ1G2i6dkOClyQzbxMDm+5naKH1fVf+jfftp2v7Ie6zTO75q0MxtyzipOtujv1H89WpNK92lBYGOu6m+9jNRDXjPZTjlk8dZ4VgZNt/VjKym1bR2YbhrV1oQuO9N1MoWDJ/Ax+Q9/Hbnr6rOljBFUG5isBHWkkpA6jb2zDsbUc4s+V5iJ09naSrVnOP/WJnVAKLPvjv/OSDrRf1dmbtExz77k5cG5wXWf71zTs7atkvDPA/PhVgMr/g9bNd7q0O6us6rrQU43Op5dMP8sm1MVJ/auRF38h/iijf3IoZK+G/XEfsUnpRFMv5WK0OcWgnr0/1ngyA3B5qvnI7NTMu2FWCxkhWARLfHszPPXPejCLm28+B1BLWOFZQ27+T/snmK2/lkyta8XW+wMjPXmXcyGanlX37nuHdq+iwk+K1z9P82vu0/EELOw91s+JD/Xz0J0aeL7EdfZqKWUbs6Ts5tQG0L/SR+3AjCXUSzQ/2YnsySMlZl7GR039sIToiRcsyelzLgCSG+36D+VVAaWJw920ErD6M346R/It6EmaQv3qA+vtPIrXbCDyygMgyHWmdAkkkQkXbu9R8w40iBdibOfX7ZcSKZUgOHKTp/zp2ZqqQ+/Qaev/BgqKtC/WcRsINIOzuYNb/Ol54/1IzHfmyGoIv/jn+BWcy4/Sf7gZA9YOXqfun0RuLqlf4WFEhpbfdyFQvc8zXbcL/8Y1EZ1vJZrxUvLsD87ZtKBOA5V5cX91C6vQuDENOIk4j+HZh+eHWs6xwjXUJixVw3Ns5ek+G/X5O/u0m5L/+C2bv9o4+LG3F/41HCXmfounpTkJf/T6DI+epU3uY/ZVH0Iz4IUqWryV165fx3raUdM6F/tXO8+tn34h/0yaidVZyKRfqP7xAzY5dyFnFwD8+TMS1laYfto1pzwKx+7Zzan479q89grqETyQ3/368n9hITBNF/cYOFGPu8ke6lMFvPE7AWPy3bRN9390EuQ5sX/s7KkeOr2eP8cfBNGtmL2Gldie/mOyx9nyA/lgdW27/McqsgIYHeWqOyPGuZyd3X8nChzn+P1ed8esn1z9B93og3c6sL30dbbpYh68/TsDUifHXXpLrVpHQgfzQU9T/axuSpi0MfHQ98VlGMkqQhXrQvvIM5rc6C9/0xkfpua/1zGxZ9dLnqWvrKf5LIHbvdk4tF9G+sYfcknUkKgJoXn4M22udpXUMgMLJ8Ob7GVriIK0EWciLat8z2NraJ1V+ctPPcN1iPCfTKPof/ncs74kgrSO+4X4GVywlpQW5rxP9S09hPOQa87ycN96ugpYAt9+c4fkXJ1a9M+TKUBD7sBFh9wAKuYboA4uI2kq/RSqMZvtxql4NFkYI/xD67cep+uVJKs4Nviy3EPziLDhykqpXBpDJizaFrZrhVhXyQ6ep+uVxNEENsS0r8N9TDEcRCRTK2B2csLLiWjuZQ/2oIwpS65cSvE02wdMjOPnITQ/zpVsePf/Pyk00TqbVTEe+jIjy1WNUbfegTAGZGJrfHKdq+zEqD53tLFiwMIwSJZ29U/Tu6tbj/dz9hGYLCF170J4WSLTez6m/2HjWIlzevoo4HWg9Ihn7evzrlp6VzQ3VdgQiuIJDo//pdyFkIW2uO+tZlFbSlaDwuZASRXWwjar9HSgnUIDjlt90L56NrYUOExGIblhPYuyH1q5j4HMPEGoyIj3ViZCrI3rrg5zesBRyPQh+yFdZz1lwtJI2CUj8LhSlHNXKdQzes4moUUAWipJZuYVw1Zj0XICKP7ZR9XYPCoBoD5X7d1G1v2OMKwMgTW/QBxILNxgrShQ6hmwPv+/YyrM9XjQVAooKLb6eZ/hexy7ck7GWhzrQvbULfV/BxJO726navwvD/g6Ec9+XOgl+dCmc3EPVHzuRSQtO8mxdK8OmKMrOPVTt70AuOAnd/SChER3hb0f/1i70fRONNlpiS+oQ3u1EIbUS/ci9RCe5Rpe+9QG8K5zkfXswvLELrRdS9VbOHOCYsHwR+bE2jG/sKPx5qwOhEMsLaQpAILXxYU7d3oqY6ER3qBNZ1VIG73uYQMPZfc3fXYmbDM4bIsU1nvGZMVeG+kd7qPkBhOfcia9FR2oOVJaKbB8bQv83Q9CyiMRtBrJ9JzF/8dg4CiqN5pFXmPVc8UzpSM26jlK78l2kchUZs4zcYRnJx+qJL6+GH7shMkTV3wzByqUk1hrG9W1K3+zA9jdu0l+tJv5ZHeJ8FbxU4vywxMh8+ypWXKifiCJv7IPjJT7BdOVTf/sgaqWFgTU2Upog+i8fQHue2Bns5hRkq/BP8QBZesVGolpQvfR17G09gIPgl76P37mOWNUOzlx/HNpFzb9uRdUEsb9cT9pSR56OokVTgVWtg7wb39gjwWkXygBETVZyxk14H9pC+tBW6vZbSctEBK8LCKBu24pauoqBhUvHX/i7YPmdiEtaEaUgvPkI9b9sJ3PrE/T9t1E/aWb5RiI6ULRvpf65XUjMWzj1lXuJrVxPvG0rgj9KfkkdaYWT6F8+SkjaxqwnOhGrQHbMRcl1yOZWojqQuLdh/5dnUNgfwPXQRkZ1rgvNi1vRGLfgvtFBZrgD0/PnuzIAfIkIInYsWhNMdt6jXMcX/uxBbhLb2ee1spx23JYH+e7GVra+vJX9pZz9nh1U/3wHmbVPEGkwIn/vBWpeOn/WUSCK5pdfZNb+4uxHWqiF9MBjNL4RQKK1klEKaNJWTt1SR8JhxOAJgHsH5p/vIH3r94k0OMYVRf3qY9S8AWHrz/A1WUlVC1RGS1VAIG22kieK8o/bML3RU2iTijFfuET58kPPUn0IwErs3icISkF46ylMx0RQrCP8wTry0T3M+vYjaBKQv/FhTty3ivDNrRj79pzJJ+VX4s+C3ZrAzMS/4Awp5jSK/iQgQ1YcdPKlhoSpkomgeXNMry627HxDLYPfXkp4noKxRxglOuFMaLXJoOiPIQGk4YIJlJNPwmLO7+E7v7qd70yyjOlwUfKdIYey2A5TU1p1ExBnFSyL5Ibv071hbJoV0SQwEsJFEvIiyxUKkOYAxdjvryhO3zNnXy6UcyH4RTBbSddbSeq0ZOc4EHvrSBNAc3ry19CNV37GaAREKroKg4SiqxNlzllsPgKZWVbyiKi6itNafztq373EZtUhVoloT7uQtBoRLU4Ss7WkcZK0BEhrQTjdM544o1U0WckCit72gqXlbkcd2UjqYvz52cJvL8im0G1Tnfy+/es8e6qTxg/+jMXs4jt/eIbfza4rXGk7k+RcaI6OcUnlREAg07wF713riFedPdzkKrTAZO/+iKIoXkMqSwFSgfykdueIqN7rQPGBVUQ3fZ/e21xUdO+hqu0FNFMyUgTSa7+Mb7kRSd8LzNq2p2BAVtWRVAPSVZx6fOdZb0iqrOQY45ZIF/8m5C6fxXzpySA9zxJUEfnGMkLzZCgOdGH4bRB5TT3+L9jIyJiSYr44nHzkpk0sFi5g36Q7+NW+bRy/Kg68y4kkALIopzALLlCom/K9NjRDY3pyLkpFRDzLGTb+t04Qy6SBCrRntTgRwReA5jri9Vbo7UQ5y0G81kg+60U5Rc0xfvkikpEBIT21POU+L3KWIi5xIA53oslaSS2pI02UCp+3dAYjso3dbnSRW48UQgUCEBWnsnrq5d1TBTmD/nb2EQACdJ26FJdWiUjP3WSuXIf/E+uJV0RR799GZa+X/PwtDCy3kpv6psmLQvrOY9RGNxJZ0Up8rpNY6xZic43YH9lacn1ghHzz/Zz+qJNMpB3bT55FGHlvpP1He6h6u/Ps2b6v5+w2qSoq5KiCcInyrg7FnAUygFJKTs75P+54KDWkbYXYdPrHOqg6APktdibfXabJTLgyZkqULIAMLmhIS3H3a6AlQdNsoO/c9CjStAhSLZmzLLmCO0GCA/y7MG0fcU0IZBoc4AcmtS8zjWs4AjYdFq2CYrwuQERx2oVEUcew04jyD08hGLYw7NTC8K5zfKwXhzwQAKwk7XXwXg95u4PMmd4jIj/tRYKT5LxW8u27kJhbiVuAuAshBGRdKFhHYqGDXP8OdLl7CSx0ksaL/nRpJS8d8iLDSdpWR44OpLo6xMqLq4tVqwcS+IYvTqm6j2/lmYsr+gyTs1LHoLOSVgLRdow/fxZ1TiA+595pSjE18hVa5Me2YTy2DSNWwl/4Mb65TpIWUE/GI1S1Hu+9G0nJvBiee4zKsZ8/4EKZgqQsSsWrT1E5suCtdZLSuM5SzMq6GHYZDJ6qoNRFk1eHYu6PochCyjkf73d1KGNJKn70LtpS95SnIihPZMGuIXp3I6pZMoY/ayPHqPWU3ryIUKsCjNWkgXzDbAa/VYkkE6Py8a7pjdkz4MqYEfmyURQDgLmGwWdWkHCLyHd3Ynhp1PXzzttVDN7Vj9MZQ7lXw9k6L4rS7UXirCNy16OwyIsk0oHhpV0o9rehueUBomsf5eScDpRRgazFQULZzuy/75x0AzruO0Zw7gqaTBbwjPYGideLglaSFi/G3nZUjgcILhSQHHWhyAH2jQyudJCXWUkoAZmD8KYHiWdB9dZTVE5o8YgoD7Uj3LKR5G1fxqPrIbekcHJwpH3I396B7nYn4dYHOVmzEanRSVIhotrdVrCmQi6EKITsdajf6USV9SLe6CCf2FNQ3KXobUcTWUd4/r2cvseBwrqKmIKLsJp1LDYaIXOCw0OX/2iMzB9ABqQ++AAeTQ/yVA/67TuKC2ETEOpBFYek2snw6lWQbmVw+dgdDlbit28hZoJc0W2WWbQFvyEKwXYMbe3TlFxAvONxTjsDqHtcyLASrxcgHUARmUz5HaTuup9hHUh8Llh4L4MLgZyIau8zaH17qNrvJbJ2Kd4v/ZjhXi+oraTq6lC89BnsvlF3XJMzgg6BnQcrKWVzXB0HTPwnMT3lRhVUkNjQSHBzI4naybyYpvKRAxgOphHvauH0w3Pg4MBZCzLZ1kaCm5sJ3mYo9AWzhdDmZoKbay/OzzfDzIh8mRi6JzvR9uXItNYT3NzM8JKzVXrqkI3XfWBvGcB5AataePUZqju9SE1LCa1cT7B1acGyDO3A9vQzGI4FyNlaic4rWIvaA+2lO+UYxKG32RuHWssSmsYm+HoKq/tpFypPAOVJb8EX7HMVGqe5ldDq9QRXFhf+pFaiK9cTXL2O6GSs9d5nsb3UjjJXR/RGB/L9u1CNlTu6i5qnn6GqL0qmzklK6kX72lZmvVTcU55zIQQAAihPuFD0FXZPSPyu0ensRCR2YX5+B5qAQOLGVtLuXegvxuBVLeEDBgUx7352X4H4qJLOFzC396BQOBhesZ7gylbEySxzpPdgfH4H2iEtkbu+jHedkYqj3jGWpJbkB9YTXLmecENhm0WmbhXBlesJfcA5AwfORGQnO1CmrcRb1xO8eSmZaCeGXz5DZWQy5QtFXzjkLa0Eb9lI4JaNBNauJ2YWABHlr7/O7LZ2KjJWYotaidu1SF27qDwx9odOcHvLMAzaePFAabVbvvbzOqLp4+/wn/cl2PbllTxy6PKXb2n6a55eUsnO1/+ZHwSuyIHoaxZL81/z9KLyt7tWUd5wgt9tPU7kpyv52L+XXui5tK4MnYLceMuP2RySWBZJOTr6ZaP3Nw6enncc59wYykPnujMuPb6+/+Q50wZuMFgQAu73wbFsgXyFlvEtGxFp4mICHJ6LiSXaOIePvsJzZaV8NkotOel4Dj8RSSp69sLrFcI5L4F771ye/s3kVt8vncUsVxHadicDy8Z7II3+f23H8ptLUnqZMpcexXo833qQ4fFmprkObF/+Oyov5gh6mUlgJfTFnzHQNF76mNN51xiX1JWRabEgmsZLzKA4NISiHDGnzDWLEXG+c4JrSAOojnZeJQs570cEMnVLEdXjW8wKdzuKmZi0XGbKPuYyZcqUucooD+ZlypQpc5VRVsxlypQpc5VxzSjm/DI74c82E2uZTviKaVAO/TQxchXJe5oJf9pC5uo4tlRmhklvaCT8mXpS9istyfufa0YxZ1bPZ+CryxhaN+XLHmaGGQr9lL/nQxxz3U3fY+Otil6jyAxEHlqG7+8cpKZzgdW8ebiP382x/3KSvhIKfrzylTqGn76dE3+6m27X+enKlqMc2PlfdO38L7pefof79OflfI0jI7mlBd/Di4g0T/XdBF986rXCt9n5X7z2+eGSl/hc78yMYi6Hhirzfmf1PAY3GEjHh9D/8hhVbUPILrAdY3DvfL72eCNvXOadAJkv3MYx1924vno1zuiU7PzpIr72fA2R0g+X4Wq5K2MSKJ58leYnr6AAV3toqitNykPN0l+8b0M/5WsqyACK3e9i+RvfOE9JCfcb2bZ73MCL1zBZKj/5Cy7u/iUpnQdq6E1E+NwnZ1is9ynTU8wzEBpKsnoeAw81EndoyKhB5g2h/dHbmH9SDE21+WZ6vmUfDfvyvZep++bouDud0FCZL9zGiYcUmDa9jPHgmIQFTlwvLkL6vd9i/8Ws6YWm0ugYfmwFg+t15PvcmN48f5KS3rwU/wONxOxSZN5BKp86SPULEbKTke/bJS7znw4tizj5H07k3/wNs7835i5spQn/728jdOIATZ8aJPTyRxicV0yLuZn9gb1oRsQqyprqPY6hv5rIag30HMfyuYNo+gBkpP5qBd7/x0Y6FUL/r4PniZFf1oj/YSfRBRpysQjq7R3UfNODfPEk5Pvvx0tMC0uUX5Q/Wfz905vX0L0ZJF3v0vCRThSTvQmxopXwhlWIeKl86QVUI4dOzvSPIQzPZYhtriYTD2H80hsYX53EKb87V3D8u/WjoZ8++xG6Pwuk3MxaurcQNGHePNwvLyXRewxzu47QndWklTnUT7zC7O/FED/Tgv+Ts0jZVWRJo+g5TdU/vU3Vm4Xyk9+6E9fmYkQgYhj+799i3j1D8pe5INNTzMXQUHKjgehtBjL+IfRvhpFk0uOEhkpS8eZJqlIVJIo3t2cX1zJcm0X91km0EYHEbXZCf9+C4u2dGA4DJzzot4vkHLMIL1adJ8II4lo7wm/6URsbia1fSvC2k9S8NHHsHHlvGLm8nnSDDA6OebZBR0aeRtOTPBP6SWE2EFlrGPf47Xjlpz+7Au+dBvKpJCos+O9RnZVHfu0yTj3WjJhNojocJbfAQvDRD0HgZcyTkW9CpnlfdFcEIQWpWg0wpiyNnrQRFK+GkSKievUYVUe0JDbYxj3mnZ9XT7z/ONquBkKLm/F/+gSabwRh9SI8D9kRSSN0KYg+4Dh78dBmZ+BHLYTNWYTDQ8htJqKfuZkMr1H3xGTkK0Gp8gNBKrcfRzXHQqhFg7TXg+5QAkl/8IKujHFROoiuXk+MHhS7xijmEeQmhltPUvlmjPB6E0NfbKTy9a7Siv/EALrtWbLF/iE/4kbbJSJJDiGc825+XjN+cxDt7pOodXoyKhkgQ1xdj5gZRNPWj1RuJHpHPQPfFFGtPYgqBbL24xjkKsSbGomNFzLuYuUvc0Gmp5hnIDSUdPseGn+cRGLWkNHL0KR0/6e9s41t6joD8ONcf8XXsWMndmpqlgRCYVkhbTUiKIM2El27loopP9DG1GlM8KNaK6q1KhNMm9ap1aj6o1XRhDapVYWGVqaiopWurZCylpGiIrICIoIBIQhT59vxTa5j+17b++FQkhZ/JLZDPs4j5Uc+dM57fXPPPfc9574PN55yMdZswnVWg1NdeE51oe3ciJJlYJ6WGuqCgkmX0OqtJLes5NruGmyvfkiVy05CH8V8IVGY+uljUFtcpNBw7vmQmkMSI+88TrDl5s4SCfWpJcSNGvY/fsyit6Mkt66j+09+wk/5qdqTR3zZKLRedEzBEoTRxU6SS930HFqJ1naC77wro0kJzJcV0DVsezuwWXxpvVWmVZ1gF96nO7CuB/WtZWgNLlKEiG/0EwfMh05Q+0Iv+s6NdD9/a2FU39yA4gHTkRPUPhvEsHw5Nz64D7W1gci+y7njy0EsR/8Eg7heCJLauoHwahnp9EW8GVMZBaArVO46ibvbj75+HSN1LjSJ3APb2S6qn+tC/1X6+jAeP4f3lQzHHRvE87NjVJ4f/378XNn2HKG+J0nSbyUhWzEu3kh/YzVjDWA9D6ZD5/Ackhj5W5aBebrxC27LzOWYM6ih9LWN9OxZQsQzuYZg0mkG8n8UmpZ6KTiMWQF1sYO4uxrNbWVslZu4USYV6cU8BZ30bfuXytF8gD6ErU0DNOTPhzC0jNerNDqI10ugDyO3pT+bsrY+LLofdbELbShYWHyF1ouOKZivJqBeRmuSiXpMJJqqiH/hQDNGkS/nf34M/SpSAghr6Ru3VSKFhL7YCmiUHx9Il/s83otlZ9XXM299hZMUCayf96VTW1eC2LrvQ13qJO4pNL7c/ReN4YPcvfNglj9QMQWAmJZWJ1kkUkYoZiCGQC+2iTXOYwAmor9cR99Pa4hPSo2bSXxTDJ2V0se/kJjBxb/bqKHcfvpfWkbEoWE73EnFaZXU+pX0PSbPzO6ORBhzN4QXVxORrNhODRJd4SUWtWK4rhTFoJEmeesfdCozCL3Q+ApVXyUwX1Gh2UGkSYaOXiwN1URWWEnFFCwXpnAsZNd8GfTx2X8sH3Vz8eObXv/FxVDq2aWe+PY5aFlJ7/YaNFXBuf8ytu4E0W2rCS2/XQPZKXn8C4jibJf7hhoqb3wONBswdB33rk6cBwKYI1ORjBaIHsXcHQW/j9E6Fdt7vZjr/IzUg9QdKvwxLDGKKQgYHcSaACTiK5y3csz6+IzP6EBtSadpki1eYkYoux7CFCkwvpupjNrmb399pzGvHRSmyyoGi4ORDQ4sbVcpVxyMrLdDv4K54L1PCYzXo4CJ6Ir0dC31PdekHK/xQhgDEtG13vTntrSGSB2ghDEHCo0vd/9Fo7yZ4S2/pn/LVqIl3Iqfskzt+knW2dNGly868b5yiYpDIabiehWUhuKcgumqoa6HsCoQddQwss0HMR8Dj07MI1uJPN+I6oPkCjmtfVnfSL8nns79vREs+M5ivqRCaxVR5RrVHw2gv9jIsA9s4/nJgtRPuorcFsKwykVo7wZS7aBunnh8CeSDXZgfXsbo7kcJbBpDX+VC11VcBwKU5RFfVoqgvjJcCmEy+oguVarmhoUAAAZhSURBVHF3fIX1gdWEWiQM7Up618kDSxjYWkkKO2MyILkIv/wAER2s73ZQEcnevuVYAPO25US3byDoGSD5iH+y+unIZRw7aghvXse1+gHKfDVELQmsBy5jU4Fc8eUgV/9Fw9KAum588e/YbRb/CkQKjCJRRWzzaoLOAYzqMM6XunI+VZVdVDDhI95Uy3BrHNO9yxmeWEbTUUV4dy1xo0S8AcDK2C9W0/9EAumLi7hF2d6SUJwZ83TVUEoQ955O7D1mlBfX0fNzO+WfK7cuCqOZ6GPLCG1Z9vWODH1VWp00vKm6KOkO45UwRsBwcRCrMoDlQgLQMI3veChU/WTafxLvUQXJ4yPcDI73eidd9IZjHdz9m0vIQYmx+x0k+3tx/fYzqj9K5BVfyRnfmYEawnpGw9KZPj+mK+M7Hhp845/H+MKfUWa0dRmhLUsYrc9j9nb8HL43glhwMLqpGuORLqwTnwSCAbw7TlF5NoreWENMUrC/fYJFe0P5xVdo/1PFnKTanltPX2wMH3XiORrCZHEx0po+H/F8pl3t57nrjQAWvAy8tpaBRgX5/ITfO9yMbkmfz/TCn0S0JX1NhB+05x2fpTxJhT1J5uV7wURE2U+BoAhYVl/gPy9fxwGQqGbvT+7nrVyO+gXDGM/ta+fpe9JTqcD7a3j8z7mFpAuZ+T0wyxIpW1nGvceGiIahhO9nCO4wFomUXEYqw8TdENMwFOsdYecYD90zlp4pJyx0npEJFGEdMeU2ZYyfRJKyoTu3WJk/SZZ+d4Sl9gQgofRUcPL6nCnTc0eY1wNz/Hc/ont75nyD+cAx6vYMzmBEghnlsdVc/cuSjJsuDefPUffkFN7em2nkWoLn1jCSKSWhB/F9/zMqpmPdFsxq5vXAnFpeRazemDEXLV0dwHJxLsw4BNPC4yDaVJ5xp1CZEsbSHi3+Ql+xMJqIP+zOvEtEj2P9d4iy2XpjEUybeT0wCwQCwVxEJHoEAoFgliEG5psIQ0l2hKFkziMMJHMHMTDfRBhKsiMMJXPcUFKIgSQH9h7e+df4Z/PJp7y5rsjtL0DmhsFEGFIEpeYOG0pmt4EkB2Nu3nq1idc/m4+CgDuDeCi9iTCUZEcYSpjbhpJCDCS5mjbzaZuX/kXdPLdBFMcvBjNgMLES2dXMwGYvMRcYr/XhfPM07sPjb3bIDkZebmZwYyWaDaR+Bevh0/j2DmLIp/0sCENJDoShpHBDyUIxkGQysAhKQokNJhKxXS3c2O7A0N2L43SS2IM+Bl7bAD2f4G5PoD2zhp5WF8az13CdjpNsqEZtdJJiEMNUDCm3OzhhKBGGkpkylMx3A0kuA4ugqJTWYCJ7Cbc6SA1dY9GPTyIPQap1DVdfryW8pRp3ey+a304KDcsH56jany42jyzl134uhKFEGEpmylAiDCSCIlLaHHOdi6gDMNZy48vaSb8y3JUuhm9t+wrT5lpGd2/iyo4Q5e0BKvddRM5VMjQfhKEkO8JQUkTmuYEkp4FFUExmZvFvaJDKowOTZ7pXwxgAw+GTLA71obT6iTR7UTevRG2W8T9yCluhBWaEoUQYSgrqf2oIA4mgWBRnYP6GweTrd/e7FSwRiFrilP/1Syq6x3/ucRHzpuvmpjwmjG1duNu6cGMl/PdN9DZXE20AW0eO9nNx01Cy1seoRcX+ai/JF/2MxEDqKKKhxJM2lFQcz2AoWZo2lDjfjn7LUJIoJL5CUxlMNIDIWN4/hdm7kpH1ZujvK6KhRE4bQo6qGQwlNWlDycEghoyGkunEl7v/2UZhBpJrGIwutB0lCKy8meEnf4BGDxX/FDnmUlNig0mQyvcUlG0+et7/ISMdKjhlYo0uTPuO4D+fIP7MRr56UMV2RkHSZSL3SpBQMfXl037u0IShJDvCUDI7mPUGkhIbWASTKbHBJIHllTbu3h+gPGZHfdhPZHk5ZZ1dVPw3nR+UzgSx6A4iTzQQ2upDV3px/f5LKgL5tJ8bYSjJgTCUTI0SGUpmu4EkFw67jmOmtS3zGFFdTiDIA2EoyYK9h3f+cY41EoCZT/7wEM+euNNBzW3m9sAsDCULmzlgKJkfBpIcSDr3Nyl4JACJwP+cdIqbVkHM6YFZGEoWOLPdUCIMJIJpMqcHZmEoWeDMdkOJMJAIpsmcHpgFAoFgPmI0pmrudAwCgUAgmMD/ASsp8bsy2fwzAAAAAElFTkSuQmCC;" parent="1" vertex="1">
                    <mxGeometry x="346" y="215" width="358" height="102" as="geometry"/>
                </mxCell>
                <mxCell id="44" style="edgeStyle=none;html=1;fontSize=16;fontColor=#FFFFFF;startArrow=none;startFill=0;endArrow=classic;endFill=1;fillColor=#60a917;strokeColor=#2D7600;" parent="1" source="42" target="43" edge="1">
                    <mxGeometry relative="1" as="geometry">
                        <mxPoint x="1240" y="90" as="targetPoint"/>
                    </mxGeometry>
                </mxCell>
                <mxCell id="42" value="&lt;span style=&quot;font-size: 16px;&quot;&gt;2&lt;/span&gt;" style="ellipse;whiteSpace=wrap;html=1;fillColor=#008a00;fontColor=#ffffff;strokeColor=#005700;" parent="1" vertex="1">
                    <mxGeometry x="1220" y="110" width="40" height="30" as="geometry"/>
                </mxCell>
                <mxCell id="52" style="edgeStyle=none;html=1;fontSize=16;fontColor=#FFFFFF;startArrow=none;startFill=0;endArrow=classic;endFill=1;fillColor=#60a917;strokeColor=#2D7600;" parent="1" source="43" target="45" edge="1">
                    <mxGeometry relative="1" as="geometry"/>
                </mxCell>
                <mxCell id="43" value="Vocab" style="text;html=1;align=center;verticalAlign=middle;resizable=0;points=[];autosize=1;strokeColor=none;fillColor=none;fontSize=16;" parent="1" vertex="1">
                    <mxGeometry x="1330" y="110" width="70" height="30" as="geometry"/>
                </mxCell>
                <mxCell id="53" style="edgeStyle=none;html=1;fontSize=16;fontColor=#FFFFFF;startArrow=none;startFill=0;endArrow=classic;endFill=1;fillColor=#60a917;strokeColor=#2D7600;" parent="1" source="45" target="46" edge="1">
                    <mxGeometry relative="1" as="geometry"/>
                </mxCell>
                <mxCell id="45" value="For all sessions" style="text;html=1;align=center;verticalAlign=middle;resizable=0;points=[];autosize=1;strokeColor=none;fillColor=none;fontSize=16;" parent="1" vertex="1">
                    <mxGeometry x="1470" y="110" width="130" height="30" as="geometry"/>
                </mxCell>
                <mxCell id="54" style="edgeStyle=none;html=1;fontSize=16;fontColor=#FFFFFF;startArrow=none;startFill=0;endArrow=classic;endFill=1;fillColor=#60a917;strokeColor=#2D7600;" parent="1" source="46" target="47" edge="1">
                    <mxGeometry relative="1" as="geometry"/>
                </mxCell>
                <mxCell id="63" style="edgeStyle=none;html=1;fontSize=16;fontColor=#FFFFFF;startArrow=none;startFill=0;endArrow=classic;endFill=1;fillColor=#008a00;strokeColor=#005700;" parent="1" source="46" target="62" edge="1">
                    <mxGeometry relative="1" as="geometry"/>
                </mxCell>
                <mxCell id="46" value="use normal data" style="text;html=1;align=center;verticalAlign=middle;resizable=0;points=[];autosize=1;strokeColor=none;fillColor=none;fontSize=16;" parent="1" vertex="1">
                    <mxGeometry x="1660" y="110" width="140" height="30" as="geometry"/>
                </mxCell>
                <mxCell id="47" value="optional (add paddings and fill them with 0s)" style="text;html=1;align=center;verticalAlign=middle;resizable=0;points=[];autosize=1;strokeColor=none;fillColor=none;fontSize=16;" parent="1" vertex="1">
                    <mxGeometry x="1560" y="35" width="340" height="30" as="geometry"/>
                </mxCell>
                <mxCell id="51" style="edgeStyle=none;html=1;fontSize=16;fontColor=#FFFFFF;startArrow=none;startFill=0;endArrow=classic;endFill=1;fillColor=#60a917;strokeColor=#2D7600;" parent="1" source="50" target="10" edge="1">
                    <mxGeometry relative="1" as="geometry"/>
                </mxCell>
                <mxCell id="50" value="embeddings.json" style="rounded=1;whiteSpace=wrap;html=1;fontSize=16;fillColor=#fa6800;fontColor=#FFFFFF;strokeColor=#C73500;" parent="1" vertex="1">
                    <mxGeometry x="875" y="10" width="170" height="20" as="geometry"/>
                </mxCell>
                <mxCell id="69" style="edgeStyle=none;html=1;fontSize=16;fontColor=#FFFFFF;startArrow=none;startFill=0;endArrow=classic;endFill=1;fillColor=#1ba1e2;strokeColor=#006EAF;" parent="1" source="56" target="66" edge="1">
                    <mxGeometry relative="1" as="geometry"/>
                </mxCell>
                <mxCell id="56" value="&lt;span style=&quot;font-size: 16px;&quot;&gt;3&lt;/span&gt;" style="ellipse;whiteSpace=wrap;html=1;fillColor=#1ba1e2;fontColor=#ffffff;strokeColor=#006EAF;" parent="1" vertex="1">
                    <mxGeometry x="2085" y="110" width="40" height="30" as="geometry"/>
                </mxCell>
                <mxCell id="64" style="edgeStyle=none;html=1;fontSize=16;fontColor=#FFFFFF;startArrow=none;startFill=0;endArrow=classic;endFill=1;fillColor=#1ba1e2;strokeColor=#006EAF;" parent="1" source="62" target="56" edge="1">
                    <mxGeometry relative="1" as="geometry"/>
                </mxCell>
                <mxCell id="62" value="Object vocab" style="text;html=1;align=center;verticalAlign=middle;resizable=0;points=[];autosize=1;strokeColor=none;fillColor=none;fontSize=16;fontColor=#FFFFFF;" parent="1" vertex="1">
                    <mxGeometry x="1890" y="110" width="120" height="30" as="geometry"/>
                </mxCell>
                <mxCell id="68" style="edgeStyle=none;html=1;fontSize=16;fontColor=#FFFFFF;startArrow=none;startFill=0;endArrow=classic;endFill=1;fillColor=#1ba1e2;strokeColor=#006EAF;" parent="1" source="66" target="67" edge="1">
                    <mxGeometry relative="1" as="geometry"/>
                </mxCell>
                <mxCell id="66" value="Model" style="text;html=1;align=center;verticalAlign=middle;resizable=0;points=[];autosize=1;strokeColor=none;fillColor=none;fontSize=16;fontColor=#FFFFFF;" parent="1" vertex="1">
                    <mxGeometry x="2200" y="110" width="70" height="30" as="geometry"/>
                </mxCell>
                <mxCell id="81" style="edgeStyle=none;html=1;fontColor=#000000;fillColor=#1ba1e2;strokeColor=#006EAF;" edge="1" parent="1" source="67" target="77">
                    <mxGeometry relative="1" as="geometry"/>
                </mxCell>
                <mxCell id="67" value="Create model&amp;nbsp;&lt;br&gt;config file or args" style="text;html=1;align=center;verticalAlign=middle;resizable=0;points=[];autosize=1;strokeColor=none;fillColor=none;fontSize=16;fontColor=#FFFFFF;" parent="1" vertex="1">
                    <mxGeometry x="2320" y="100" width="150" height="50" as="geometry"/>
                </mxCell>
                <mxCell id="70" value="Note: before splitting the data, the whole data is shuffled &lt;br&gt;so some values may be different at different runs" style="text;html=1;align=center;verticalAlign=middle;resizable=0;points=[];autosize=1;strokeColor=#6D1F00;fillColor=#a0522d;fontColor=#ffffff;textOpacity=50;" vertex="1" parent="1">
                    <mxGeometry x="384" y="-50" width="320" height="40" as="geometry"/>
                </mxCell>
                <mxCell id="76" style="edgeStyle=none;html=1;fontSize=16;fontColor=#FFFFFF;startArrow=none;startFill=0;endArrow=classic;endFill=1;fillColor=#d80073;strokeColor=#A50040;" edge="1" parent="1" source="77" target="79">
                    <mxGeometry relative="1" as="geometry"/>
                </mxCell>
                <mxCell id="77" value="&lt;span style=&quot;font-size: 16px;&quot;&gt;4&lt;/span&gt;" style="ellipse;whiteSpace=wrap;html=1;fillColor=#d80073;fontColor=#ffffff;strokeColor=#A50040;" vertex="1" parent="1">
                    <mxGeometry x="2510" y="110" width="40" height="30" as="geometry"/>
                </mxCell>
                <mxCell id="78" style="edgeStyle=none;html=1;fontSize=16;fontColor=#FFFFFF;startArrow=none;startFill=0;endArrow=classic;endFill=1;fillColor=#d80073;strokeColor=#A50040;" edge="1" parent="1" source="79" target="80">
                    <mxGeometry relative="1" as="geometry"/>
                </mxCell>
                <mxCell id="79" value="Model" style="text;html=1;align=center;verticalAlign=middle;resizable=0;points=[];autosize=1;strokeColor=none;fillColor=none;fontSize=16;fontColor=#FFFFFF;" vertex="1" parent="1">
                    <mxGeometry x="2625" y="110" width="70" height="30" as="geometry"/>
                </mxCell>
                <mxCell id="84" style="edgeStyle=none;html=1;fontColor=#000000;fillColor=#d80073;strokeColor=#A50040;" edge="1" parent="1" source="80" target="83">
                    <mxGeometry relative="1" as="geometry"/>
                </mxCell>
                <mxCell id="80" value="Create model&amp;nbsp;&lt;br&gt;config file or args" style="text;html=1;align=center;verticalAlign=middle;resizable=0;points=[];autosize=1;strokeColor=none;fillColor=none;fontSize=16;fontColor=#FFFFFF;" vertex="1" parent="1">
                    <mxGeometry x="2745" y="100" width="150" height="50" as="geometry"/>
                </mxCell>
                <mxCell id="86" style="edgeStyle=none;html=1;fontColor=#000000;fillColor=#6a00ff;strokeColor=#3700CC;" edge="1" parent="1" source="83" target="85">
                    <mxGeometry relative="1" as="geometry"/>
                </mxCell>
                <mxCell id="83" value="&lt;span style=&quot;font-size: 16px;&quot;&gt;5&lt;/span&gt;" style="ellipse;whiteSpace=wrap;html=1;fillColor=#6a00ff;fontColor=#ffffff;strokeColor=#3700CC;" vertex="1" parent="1">
                    <mxGeometry x="2955" y="110" width="40" height="30" as="geometry"/>
                </mxCell>
                <mxCell id="92" style="edgeStyle=none;html=1;fontColor=#000000;fillColor=#6a00ff;strokeColor=#3700CC;" edge="1" parent="1" source="85" target="87">
                    <mxGeometry relative="1" as="geometry"/>
                </mxCell>
                <mxCell id="85" value="&amp;nbsp;Train" style="text;html=1;align=center;verticalAlign=middle;resizable=0;points=[];autosize=1;strokeColor=none;fillColor=none;fontSize=16;fontColor=#FFFFFF;" vertex="1" parent="1">
                    <mxGeometry x="3060" y="110" width="60" height="30" as="geometry"/>
                </mxCell>
                <mxCell id="89" style="edgeStyle=none;html=1;fontColor=#000000;fillColor=#6a00ff;strokeColor=#3700CC;" edge="1" parent="1" source="87" target="88">
                    <mxGeometry relative="1" as="geometry"/>
                </mxCell>
                <mxCell id="91" style="edgeStyle=none;html=1;entryX=0.512;entryY=0.2;entryDx=0;entryDy=0;entryPerimeter=0;fontColor=#000000;fillColor=#6a00ff;strokeColor=#3700CC;" edge="1" parent="1" source="87" target="90">
                    <mxGeometry relative="1" as="geometry"/>
                </mxCell>
                <mxCell id="98" style="edgeStyle=none;html=1;fontColor=#FF33FF;fillColor=#6a00ff;strokeColor=#3700CC;" edge="1" parent="1" source="87" target="93">
                    <mxGeometry relative="1" as="geometry"/>
                </mxCell>
                <mxCell id="87" value="load data, stats" style="text;html=1;align=center;verticalAlign=middle;resizable=0;points=[];autosize=1;strokeColor=none;fillColor=none;fontSize=16;fontColor=#FFFFFF;" vertex="1" parent="1">
                    <mxGeometry x="3135" y="110" width="130" height="30" as="geometry"/>
                </mxCell>
                <mxCell id="88" value="take only normal data from labeled data&lt;br&gt;and shuffle, split valid and training data again" style="text;html=1;align=center;verticalAlign=middle;resizable=0;points=[];autosize=1;strokeColor=none;fillColor=none;fontSize=16;fontColor=#FFFFFF;" vertex="1" parent="1">
                    <mxGeometry x="3030" y="10" width="340" height="50" as="geometry"/>
                </mxCell>
                <mxCell id="90" value="" style="shape=image;verticalLabelPosition=bottom;labelBackgroundColor=default;verticalAlign=top;aspect=fixed;imageAspect=0;image=data:image/png,iVBORw0KGgoAAAANSUhEUgAAAdEAAABGCAYAAACT167UAAAABHNCSVQICAgIfAhkiAAAABl0RVh0U29mdHdhcmUAZ25vbWUtc2NyZWVuc2hvdO8Dvz4AAAAmdEVYdENyZWF0aW9uIFRpbWUAbWnpIDMwIGFnbyAyMDIzIDE4OjUyOjU3KdZn6QAAIABJREFUeJztvXt4VFWa6P2ry96VVFUqqSKVVLBIAiQEo0iATiZyEUnTdGZ08Bs+Gls82urY2K30tEc9rY/YzIxHHbVtPh0ZddCv1XbEHofJKDZjhqZBBTETOxpAcoBcCCGkKheqkkpdd93OH5VAEnKpJAQS3L/nyaPUXmvtd9/Wu953vWu9ijkzvhdlojAIRL1BFCEAAffbt9CyIkLKT8tI2xXH8W8NIdY++TlPX23mkbvz+ch9ueW5UhARtBD0SrF/5mzku3+3mqST29n9y7fwXmpx0u/ihufXY2rezh83v0V3+FILIPNtZe68zbwwx8Chwy/yQmMrnmAQ6XILBaAQ0IkmlszfyN/MEPjk81/ygj04ujYSHbzwZhXL6+fxV5ssNE+MpEOinsjGozdfz8mHE9Ac86DUGfEsVIHDhrYyvuPfHtTseD2P4gfayZ8T4aOvlJdboCsDVQ45m59iRrCOTifoZheQBHQdqbz0ClRG5jLScOYwp2etYP51/4t35jXzTvmv+NdJ8BGIV93DO3+WjwhI7goOnh2lAgU0c7oxNM7g1dcvvQKFCVaiCpsTjWcWviIjEVUY4Wgz035dib49vuPfKk5beOQxy+WW4soi7Ka70Q7z85meKRL22mnft53D/1FzuSWTkbmkSI4P+Omu/cw2TEOvkrAHLrdEMaT2Xfz9Z/sg2EVdVyueMfhFA4ey2HDo4ssWL4oJdefKyMjIyMhcwch+QxkZGRkZmTEiK1EZGRkZGZkxIitRGRkZGRmZMRJ/YJFmGh37VuKwtJLxZ5+QdMUH/4h47irjzCKJlH/+IWnfjD0gPDJ3A7Z1pXin6YkqJZLfWEP6oT7tmUpov3sDXVeZiAggfvoE2WUibU9vplPfU8a9F+umZ9FGxiZD6pJjfPhEB188tZhHPh987BQtfp662wsQPn2C7B2XJkTaUHiCj59s46vni/nZvgmNc5ORkZG56Ey8JVo4j1NNt1L777mMsf+f4ljoLl2LxywiHtuLcX852rP9S0hL1tOZbULZWonxYDmGejtE7Gj/uxzjwWrE8d44lYe//tEZUluu4t2Ki/zIlUtp+4fdnNjyFG5h9NVdX83g3xoDrPofp1mguriiycjIyEw08tB/olGaCOuBSB0p7z5LsmtgAZGQwUQUicQ9T2KuOm+h6j/Ygl4oJVRYMK6F0ZrC06zOhvp3LXw92Rb4hxP56NMUfnrPGe4pzuJnQ1jJMjIyMpORYZVopHQe9s25eIxhtO8dY6ChId1bSPvt0wlYEwgTRKhrIeWZKlL2B8E0i5Y/FeLuPUPhQuqaFgJ+jPd8iHkPRJfl0fbwLLw5OkJaUNk70b9ehflNJ4oJudwBCPl0r9vA2fk5BDWg6rST8MU2Msor+50/PPMuzvxgNV6dA93Hz5LxxxoUmOh+4HfY5tgx/eO9pNab6Hzwt7TNbCL1V/diau51B4s9reTT+vRuWjnvzo0sfp762wroXWPUfdfv6b6rx50blztVJFi0kbZVS/Ga9Shcdeg+f4v08sp+LoblN3SQio7/qkwccP05dP/wMToWWIh2VDLtyIDmDUtxrFuPa2YmQb2IwmsnsWo7aWXlCJFMnP/rDdozewsX0bJlNwAJ5Q+SuatmhPrnT1P/pYn6H9VRfIMDzeepTJIlbDIyMjIjMrQSNWXQ8XQ+bjOoG92E1s3Dq+1bQIW0LAsp1IGu/DRKtQn397Noe04iYcVXJAS60JU1oDYZca80Emo/S/L+LhShIIm2WAvh62bQPSOM9uAp9C4R30ornb8sRKjajfHwCJLrS9mwYCnGwQyXjp1sOVrJSHtfBL+7EXtxDurGvRhPSkTS8/FkWYhCHyWqx71sKZpWBwqTBfef34X7v39BUhxb8wknyjEGLfjmF+FPdKCtqkYMSCT2uHMVrdWkVDgIzlyKOz3m7tV2Sqjr7SM3DkTzH+LM7SUEvU3oDlUTtRbRfdNmwsEHsf6xLlZI5WFBTgB8yXxdP+D6VzyEvSiTaMBBAvm0rzDRb9FwSj7dc/So6yvROSVCc5bSvXwj7a3VTN/vRnOonJQWC75FBQRUdnSVNQhICKcccdTvc42nk6j3wey8ThaoUqmYbNayjIyMzBAMrUSvz8JtBsXxGqw3H0FYVEDTv+T1sRLCaDd9yEx7hIg1gbAuAfWMlbTnp+LLgYSjZ0l+5CwUzsO30ki48RTmB2v7WUjqsgPMesOPwqwjlKxCFzBw5g4jviIB4+ERVKCYw7zsIqyDmazqSsSjjKBERYJmC1HcaP60g2mf1sUUpyBeUDJxzxNYd0Pnw2/QlmkhkCrGoUQlxINbMVfk45hZhF9jJ6msvztXUb8dc72I9/Yi3OmgObiFtK/jddyacC9fioQd42/ux1wrgWEtLX+3Ac/1JUh/rEMEUPmwpkbAlUh7P+WUiWdeDlHcJL93P+lVIt33vYLtWv35IrYdzPjlNpRKCyG9nkijiP+OpXhn58P+vWh3b0GrXErbtQUENE0kv/8s+r43fdj6fZRoOJFmJ5Duw6oCZCUqIyMzRRhSiUZmJBAGhKoWxABQZUPrzCNg7C0h4L9nCW23pSPp+tYUCZviO3no+nzsm2bhNfePKIkki4ykAnFs5WfvbI3vRIMikfBNNcJ3luJe+wr1K5tIPHGAlPLt6PpFHrsRWmIdvtoNKEWiYwiguegoMwlYRFBacP7N73H2PZZiISiAGASIoBEBp6q/m1RpIZgCROrQ1sQsR92xJhTX5p8rEk1dSsedd9Fl1fezUBWJ+gHW+uCMpn4grARVBI0cXCQjIzOFGDGwSBHonbwKQajPgRXzaL03naDHRfJrdWgbw/jvLsSZF+eZTVban8zFawiiLashqcpDdNk82kp18UXxXgR3rvLrZ5nhXo2ruAjvnHw8RevxzDFhfXIL2j6V45ufFeFyKICIA13FATR9LzbUhHDOmlPj8gGJQQxDttH7375WsAXXDzbQaRURandi/FMdamMJ7aUFhJTEoURHUz+CITECPgGXbIXKyMhMIYZUosrTflRAMM9IBCfKDBNSHwszkq0nBCgqa0h75hQKtZHgjwdpKExM+WqURNSg7FXEGQaCWsBxGtOjNWgDKryLCuKXfNzuXIgm6lHX7sBUuwMTFroeeIPWOfn400E7YjoACUVIAqWeiAZQmggNqaXGQdiNKgBoTIQ1gK/n90gTmjYJTCDUbCf1UM88pNJCIFM8vyxG0lPfooTZPqx6oKu3vh2hEzBYCFhFkupBsmaetxiVFoLTRIjYSf5gGylNEtGipVw4Wyuh6D1X3wFN3PUB0YfVCJzWUS8rURkZmSnE0JboF6fQObLoWlxAy6spCNnZeDScs0aVx10IZCDNz6JzjYRwbR6dswdp57QHIQyB/LnYXzag8fhJfP0I+tNOElzgN6TTfXcGBDLo+H5C/JKP250rIn3/eVryHWjrmlBhwZslQtCBcMEylMGQEFsdcK0F902PoSjOpMsEF30xbKQOjU2C3AI67tuMv9WN4mQ5qRU16D49gDCnhM4fvYJUW4cKPZI1B6lpKzn/3NRj6YlUfKODq7tZcDW8W9HbcBO6I3UosnNw3v4U0VrwFPYdJTWhsUtgMuFeUkqCQaR7VQERBlig55RxAR33bsbncKM+sh3jN3HWBzRXd3KNCM1HTLISlZGRmVIMvSjPYcP8WA06mxLfyhkEj9aS3Nc6O3gUy0vNaEij44Xr6ch3oTs6SDvtp5i2tZkEp4Dvplk4183CNwNw2TBtqkFvF3H9Ygn2O/UkfuG6NEtbAJBQnapGE7TgLSrFuaSAkLsG4/vbSIpXie59C2OTm7C1CI+mGkPTRMhpx/DBdpJa3YRmL8W5uJTOubGUacpvtmD97U70HeCfW4R7diZRVw0ph+r63cev/5BBfdjH9cVdaPr8LuzbQlpVE6qUArpyJQwVNX3qOUjasRVjoxupeCMtt5XAyZoLljlBE4ZdO9C3xqJvnYtL6c4yjaI+LCjuIDWcxO49SfLyFhkZmSmFnArtW0GItU9+ztNXm3nk7nw+imN5ziXjMmell5GRkRkP8vYw3wrU7Hg9j4/qw+TPmVybL17urPQyMjIy40G2RGVkZGRkZMaIbInKyMjIyMiMEVmJysjIyMjIjBFZicrIyMjIyIwRWYnKyMjIyMiMkStCiUYXWun6SS6ewsmwqe2FTHb5ZGQmFpFg/lq6lpUSmIhdvS4BUWsJXcvX4rHqRy4s861i8irRwnmcarqVEz1/tW9nMVQYcWjZXNoeX8jZksQhSsTwvrqGE01raV1zaTe5jVe+8ZC65Biff3yAF5b0LGFRLqXtH3Zz4uWev394DO8EPm2d5U7eWfO/ecQy9DVGi5+n9uXdNK4tmjhBBqJZxOM3v8T/XzCHC/PzyIyH0IoXqX35/DvWvCJziJIi/uUbaF13F670YZ6CsoCOzbs58dLzdE8yXRXKW0vb2g2cvdYy6roL7qngeNkh7kmfAMFkLjuTV4m2d2DYXotxn2sSC3kJ0KTTVn0rJ2qX4NYNUUbl4a9/dIbUlqt4t6LnbkXsaP+7HOPB6vP76E4UCitrrlmEsbuK/2j1jVx+VIi479vNiZd/R/vcMajBwGF2NZ8lPfsmbtKOXHxwcrj95t/zaJashvuiaq4k5WA5yU2TafeO0dM7GGi6KX/kwmPg650zqBDb+Ov/4Rg6CYTMlGXELC6XjUYbxsdssHIh7hWGfglkBiK8tIfcly6ZZKNmouXTFJ5mdTbUv2vh63N7z9ah/2ALeqGUUGEB8WYpHQuiuYRVKVD/zRfUT7pVx0EOnTpM66wV3Dw7m/840hh/1ZT1/M+rJfZU1/T8oMeauZYfmOvYVrUXz0SIO4VQ1G7HXAvSTfm4MoczHd0kvbqKpEsm2cVH+OP95P5xjJU70tl96ATFN5zmL9808a7jooomc5kZWolqptGxbyUOy1mM74TwrEsl5O3E9OinmPaMlB8FmJ1H8x8K8J2qIet7RxBDEF1TzMkXs+DDz5j5Mxssy6Pt4Vl4c3SEtKCyd6J/vQrzm8749tBdt4S6F6zn9nxP+KePyXyuz8a3s620/3oRXdcICPuPXPpR4AjyRe6+kfq/T0coP4525iy6skHcV830nzUghHU4P7qZ9mt6S1tp+T+3xtp57WMynznfzvIbOkhFx39VjtZdLBIs2kjbqqV4zXoUrjp0n79FenklSiCy+HnqbytA+HonWnMJXekgHn6L6b/diXDOuhW4bkYuxmgrn7S29m9eyKH7h4/RscBCtKOSaUcGnN6wFMe69bhmZhLUiyi8dhKrtpNWVo4QEQmseYNTK3rdZyacD8TypipqtzH7H3egJBP32o045uUgpeiJBh1oaveS+t42tH33P+6s4ZB/Baumf4e53zRyLE5FL0hNtIl38egtawkiIhS+whbs7PnqQJz3d2T5osXPU3d7AULVdgyaEjrzLIRDTUx75X5MjRBctJHWNSX4BDv6PdVEblqNp7OczL/fQkIEMJXQcdtduGZbCONG7Wgi6YMnSf1m5J46UvQUDXcUoTr4BDPfqwRE/Gt/S9NyPfp372R6hRtp2UO0LysgYDIRVroRbNWklG0lpT4eTSDiX/dbmpb1JjZwYPzHO2MJ5HtlmLsB+22r8ejcaD/diTDamRbzXTQ/sR5fSznm2kw6i3MIqiW0H/2Cq/Y1DS//tZtpuG/puQG6v/RFTpQCwUqmP/pELMH8gqeou6fo/De8634yy+v6CGDB+5cb6SguIKAHoekAxn/bOsA6V/NpVQoUOli1JMS7H01e20Vm9IzsKVVPo7vIj26/B8zTOPvgLILxvAOnbOjqIZqVjs8a+ylQlEqIIIn721AA4etm0D0jjObgKVLKbKi10+j8ZSGd18Up/UkbyWUNJB/2D3Iwge4ni3EuTCDq8qCYew0dN44isEdfyoZlT/Ho8kH+rikadCP10cl3HmmFldCh02hdAoHSApwrVRCS0OypJaXMhiYAhDzoPmwgpayWpEN97EqVhwU5AfDp+Lo+/ssDiOY/xJnbS/HqHOgOHSAxmEn3TZtp+W5Of/muLSLUVInWoyew6C6c+X3dmulcbTJA2E59d//2gysewl6USTDiRk0+7SsK+s9rp+TTPUePuqmSlM/3ovOY8CzfSPsSCyChOnkAY8VedA4ACU3NXlIq9pJypCdDjTIT7/wcomdrMFSUk3xSQrp2LfY1Jf3PEz1NQ1cQdDOZP4pxRtB7gHcrtvKxQyRFBF2ixBdVW3mzoSY+KzRe+QBpwXo6zXZ0X+5F3+ImIgCmtbTdVorXAEK7RGDVajz9vlgL3bc9hGOuHvU35RgPVpIQsBCYbiIelMeqSQxCaHavpyIT32wTBOvQHYspSSl/KRJN6L4uJ+VwE1HrUtruvAt/XHMsEqr6nmfYOchhTQkdd6zFbRJRdboJLV5PV0pcol9AdHop7YV6NEcOkHzcjkIjjiz/2WoMB/eS3Bi7VnVzJSkVezFWVCP2enTaK0k+uJfkxsFc1iJS6WbOrCoioLSjbXIQyi6h9aeP4R4wYm8/kUQzIfKvdvVLAiEz9RlZHYZcpDxaganRSmjZErqzjQRVIAznX+2ppz3ogrwUvEUqkpt1+BbpIGBDvz/2hqrLDjDrDT8Ks45QsgpdwMCZO4z4igSMh+Owdr9swPxlA8Gfr8R13YA0aubpdBepINBK2rpPSHZm0PbxDXRmjNwscFHylQ4rXx+U+6vJeKSZ4OOpeH9iQJqbALs8aH/9FVpNOm03ZhDQOUl+7Ev0A3tvlQ9ragRcibSPKo2YCffypUjYMf7m/ph1YFhLy99twHN9CdIf6869HMpvtpPxXjnBm3LwlmYiTbfANz0paxTTmJEI+F3Y+829ZuKZl0MUN8nv3U96lUj3fa9gu7aP28+2gxm/3IZSaSGk1xNpFPHfsRTv7HzYb0f99TbMX4u47yvBY3Kj3bcF87E+A4hINam/+iFKn55Qkp6otonQzA24ZxYQUO6NWWoAhLD7fKAwkK4DvPHdISFtA8+WlCLaKqlyL8XYVk36ohfZlrmNxz7dSetIDcQtHyjad3LVc1t7kquLoJQIrViKVwNC5bNkvXOAaPFTNN5edH5qQ2khME2EYBNJu7dhbHYDItF4x4quSnRnNuDJzMeXAmKkAF86KGzVaDsBJLTv3clMl0QkxURYY0I97XnaM3PwmSFhxBsAQtVWzFV6un9agmeggswtwm0ARfMOrL/ahmDdSNPDq8eWySdch/nFB0lp7Xk/epT8sPLbdpL63k5CK17ElW1C/c120nbV9G+3eSfm93YS/O4ruLL7Dy5RFtC1JIdosI60Fx8kpVXEe9sbNC8uorMwE/0fz6d1CrRraA+D1eLDDPI+0VcQcdiUHoRmIBDsSQ6tIqqGeN50zSetiHfn4l+cCvt1+LJBcdRGoi12PHR9PvZNs/Ca+/twIskicaio4cnQEVKB4ngb2lNAqA3t0XD8SnTc+UrjRzjtQQEou2LXHFGPxqcVQSMCTtXoOh9lJgGLCEoLzr+JuUnPkWIhKJx/OYROe0w+b2w0HlH2sUSVakQlEA31f2JKC8EUIFKHtiY20tcda0Jx7fngjWjqUjruvIsuq76fZaZIjP17RJd+Yg6udQ/hmGch1NcyiugHpHUNEowACIgqgXjfrWDnAbbv3UlVm57bb15K8PRWnqvYySKTNLICHZV8oD5Z3aNAASSIiEhpJqJIJByvRgEoaqrRRPoo0Ugd+ho7zuU5tD/6Ozpb69B+U47x4/I4I5Gb0B1tQpGdg3e2HkMoH78AmmOVPZ4WE/7lj9G2vACpr/kU0RNOFGNyjoPINAthQKivjAW/NVeida0e0zIYhaMabWvfARZMtPwYcpAMQHvvuSW0x2pQLl6KND0T6JMbMdjzAogR2RK9wojLOa8Yyeocikob2vZcuuanEVimw6+BxP0tsZOarLQ/mYvXEERbVkNSlYfosnm0leoubl7r8HnzbFTXoS9lw4KlGAdzW3XsZMvRyvGq+YuEGpcPSAyObc434kBXcaBPBw6EmhD6WrXDPZCID3cIUCcyZGhJb/1I307LgusHG+i0igi1OzH+qQ61sYT20gJCSuJSolLJRtrnW8BRTereA4iBTDrXrsYLA9ylAjpBALy4pVE8NamGqraYrPVnDuB2A6G6nt/iqB63fKAIDNKh9w5WwkN19m4SdjxIZtNqXAuK8MzOp+u7+XhSIfuN8rii2oWaasQ/X41/TgGBYD6hiB3DkZ45v9y7aF1VQDDQRHJ5Odp2Cf/KjTjTgcHGeWMMo1f0fb/G+vEHpQvfl9HKP5Ek9ChPt0DXJT61zMQysTPcnjZ0VUE6V6bTWaojFHKRsq/HH5lhIKgFHKcxPVqDNqDCu6jgwja8kdi3OS2BsBrU8SpCmwd1GPxWI5IWBK+OwEwVEKfP82K4cy8SijCAavAPX9JT36KE2T6serjgCw27ezwIJsIaoHcFSqQJTZsEJhBqtpN6qCdQRGkhkCkiRuLsz6KtnPYAySZmqOFQ702J2BE6AYOFgFUkqR4ka+Z55aG0EJwmQsRO8gfbSGmSiBYtxT7YOcISIBLt10mLBM0mooD2s62YPm2ClPV0CQziJTGQrk2E8GmaxxRSa6fi62dHWWc08g2GhHDWjoIcAnOKiFYdIJpbQGDAPYgmSmgq38Jc+RbmxBJaNz9G18wC/MpytL0PMLGIzr9cShA7SR9tJ6HvKqTmSrSdq+mcXUpXxATucvRNMaUdMVsIAYraHaTtKkdBPsFVF0qq9MfKh5NN9LO+RkB51o6KfIIZmUSoRmnIRLqIIbzxyt9L3G7wXlx1iC7wmArwpouIrSLeuflEgISW/vdBk+nBqoKOM4l0D96azBRlgsPEwiTu70BZmkHXSqD5FLqjPYdOO0lwgd+QTvfdGRDIoOP7g8wbHutAdOURuO4aWrYZSHSEET88RPJ+Ae/D+XgyIDJXRxQILcun3SyBzYbxpRaSqsK4F2fR9mYYfVcqXXmjEH3c7tyEEeSzxTdwD7sR2gBzGh3bivE1S6j31WDc1RusJFLxjQ6u7mbB1fBuxYD6kTo0NglyC+i4bzP+VjeKk+WkVtSg+/QAwpwSOn/0ClJtHSr0SNYcpKat5PxzvJ3hWf7U3sodJgtzjQK/b+vVok3ojtShyM7BeftTRGvBU9gn4CXShMYugcmEe0kpCQaR7lUFRLjQAhUcDsCCa81mmO9AYT9A6r5KxBY7ikU5+AtW47bVEFw2MPCmB3U2VycDXbUcGtOE21iQ4pdvCISvK0lclYO3+CFOm9cSteYPWOploeu+F+mKVKNtcaBIzMerBUWzvU/0NKDJwbOkFA91CHsGKNFINboTbpzFRXQB6qpqNL37dbQ0IUQKkDJL6JzvRpi5ls50Lhhdqc/UoSaHQPFGbIk1qIMOdP/5FtpgAV23lCCpRCQLgB5fyUbavwOqEzsx1VSic5XQNfcuWu7IQbAsxSNc2P5YiVd+VbsDFRD4s43YdHWoA3Ukl+1EjFjwrlqPZxpEplti3/C89bQb3eCsxFheSXJFE52lObQ/+AqeDhFftgnclaR82f/7mZ3vwoDI7q+SxjbnKzNpmfB9DJT7bCT2vDVCZU+kKYDLhmlTDXq7iOsXS7DfqSfxC9eFLhlHM6nPNZDQrsS/chbOdbl4cpSgFvGX5uJcl0tXT9BO6LosnOty6bw5lQh+kjZVYDzsJ7wgC0+yjZT9l9ABO6J8cRLyYHipBn1jhFBRrH73/P4zXl//IYP6sI/ri7sGmW+xY/hgO0mtbkKzl+JcXErn3NiyEeU3W7D+dif6DvDPLcI9O5Ooq4aUQ3XxLTHqof7UIeqjBuZfNbPfXJywbwtpVU2oUgroypUwVNT0addB0o6tGBvdSMUbabmtBE7WDBL1LKH55C2M9XaUpiI6F5fSOS9m0Qr7tpJWVYcqYzW2ezbgcVejG2SvB9F8DfOFIMeaqjg9iusaL/HKNySt20l/fy8JXpFApgV1xd4e67LXdekmobYGlSGf7sWrcXwnE0XTAdL+dUd80ePE2kqsqe4ZTUsk1lSef0aN27HsqkSjzKfjnofouKoJ3WARMce2k/ZpDaIyk+7iUpxLigjoAE0O7iWlOBeX4DEBiPivLcW5uJSuORbw7cX87k50DhHfgiKCzXtJvphrKOOUX1GzHXNlHYKQE5N/cRGSCkCP/zs98mbHJitCmT3f0HfyiSAh7nqCq3ZXImLBm2lC3biX9FefRd93iRU+VhV2Q0cGH335rd465opETsp9RRBi7ZOf8/TVZh65O5+PLvkGMgZu/LPHeSS1hmf+67ccHOsc+oSQyKrr/5a/MdbwzO7JJttIiEQTQeHrmRPN3Miph1cjNW8n+1dvjUJRylxONFef5D+3NOB6ezF/9buJ2/pT5vIwZndu1CQQHWpyPhxB6RjVeguZcaFmx+t5FD/QTv6cCB99dalHuy4+OfoB182fz2yjwMH2yRFyBYAwhxmKk/z+8K4ppkABZQ7O//kUrkAdmi4IzozNiSbUVH4LFKhINFE/5H7ZIKH0TY3tBvPzfDR/PodXP5QV6JXI2CxRXRa2I8V0D6WCQzYyvvMZSfL2VjIy4yCT7jse42x+JkFtz45OX28n7T/KESbROGVCEEqxvfAQ3UONByPVZDz2C5Iu9lbNMjKjZGxKVC0g3WgiNKQSlUj4xIlyqo38ZWRkJgkmpLkDA6n64iDhWM23OzmFzKRAnhOVkZGRkZEZI/JATkZGRkZGZoxMCiUaXWil6ye5eAqv/HCJSUnGNNz35tJ1k5ztUGZqErxpFl33ZhGwXm5JZC4Ll7EPmxRKNLRsLm2PL+RsycRGr3lfXcOJprW0rrnUe35dBnqTeTf1/FUX4h1q086ZMzi7eSFt96QPu341escN1DbdSuOz08Yk0njrT3rPTszVAAAQGElEQVTy8mhuuJXaP+THl+noIrHgxxUc3/2H2N+rp8i/Ql7v0AMrqW06/w43PzBUEgcV/vWFtG6ehyt3mAY10+g4eCsnGm6k29zzm97O2x/33Lvdn/Lykot8EQO4LH2Q2Ma2c9e4j5dvuHSnHheTpA8rvv/g+e9r6ylmDzg+ohLtfZGbHv+WWimF8zjVdCu1/557cff0nWjCPrQf1mIsa0WcygFevR9S7RLcusstzESgwv32rZxouoX2leNpR6Tid/PZ9Js0mq+Q1WWqmtOkvF9L8tEJDEX2mfjN8/N58bNJ/HJdrD7o9Ayee34e79aMXHRSMEn6sLo9c9n065l8PcQW1pMiO6zw0h5yX7rcUlxhhFzo//Yr9DoroZvSh89XcbCarMzqSyWZzISgork6jR1fXW45Lh6Kfccx7wPp8XRc1ww31RMm6fZ/ZUzb7oZFPt2XRvv0Rh684QpfN9SVxO49qVMnDdsk6cM6TpjY0Rhh+X2DHx9aid5STMPLWeezvv/kzznxEyDQzPSCz2N5LfPyaP64AF99LeZKA523pBLURNC++F9c9U8eosvyaHt4Ft4cHSEtqOyd6F+vwvymM7a12Lol1L1gPZ81/p8+JvO53v2yVHhevYUzN4F+eyOR783Cp/Wje+1zMl5yxrct3Wwr7b9eRNc1AsL+IxdkORlWPtMsWv5UiLv3DhUupK5pIeDHeM+HmPeMUD8e+YZDY8Txh1V0WM+SXrKH5EYgYxYtnxXith0n63vVaMwZOJ68BtdCA0GDgMLlIrH8CGl/24wQzwad1lzOfLYQT881Kr78itn/b+1594TOQPezxXSUGog2NjNt/yi9/yPVtw4jf1iH86Obab/mXGFa/s+tACS89jGZz7iGr39JNihVEfh5MfYfZxAMdJL8m47+h9U63E8twnFDKpJFIBrwo6lsIHXTEbTNEHj6Zk7d0WsBJeD8za046fMcRqgfN9bVdBTngKuSlN0H4h85a6bRsW8lDstZjO+E8KxLJeTtxPTop5j2jKxwIutvoOHZDFRlnzDzwVjyOP+zN9O0PgH9pg+Z/k4Q6d5C2m+fTsCaQJggQl0LKc9Uxb1Fp/+FW2ha1+vm9WD80e8x7+sjQ+k87Jtz8RjDaN87duk3qZjKfdB4++Ap1IcFF2ygK1ePsn4npqq6eG7OOYbuFU+2YShrIPlwbKNz9dFmUsoaMP677QLTOpqXS/tNIpp9p0g+6EKREPP3h6+bQfeMMJqDp0gps6HWTqPzl4V0Xtd7DhvJfc4xOAKe75kQ97UhqHW4N87DHVdO0AS6nyzGuTCBqMuDYu41dNzY/xMaVr5AF7qyBlL2OGOdTvtZkssaSHn/1Ll8qCNe33gIONEe9IA6ltQcIHp9Gn5Nnz2IM1LpLkpAfaiFlPcb0Dl1eNYX037H0AnA++FyxK5xn3PQFyH4k2LstxgJEkRNOu13pA+zg8wY6g8nf0hCs6eWlLKeaw150H3YQEpZLUmHpJHrj4jIvPzNPLr8qQv/lj3EynjMmmXzsD1sJWCIoHYIuDfm4OuroVR6vN9LJWprxVBWS/KhMNKKfOybrUQBVdUpjGUN6GwAYTT7G0gpayBlb88e0iPUj5v0IpzLS3EUFRAeSxSEehrdRX50+z1gnsbZB2fFNeer/KyZxACE5qchqQG1Ad8iHQQ60O0PAiqkZVlIoS505bWk7HERzcui7bl5+ONMuqmqbOhzDwdgyqDj6XzcVgFVu4/Qunl0WUZx3eNmivdB5xhjHzxl+jCR4NwSHMvO7ys+Gob+FA43kPpgA6EHVuK6LgH1/iOkPeMavGzgLObb95DSm6Gl5wNQlx1g1ht+FGYdoWQVuoCBM3cY8RUJGA8H4csGzF82EPx57BxDoX39AGmvQdfMW2gtNBCYCUmDfTR9MU+nu0gFgVbS1n1CsjODto9v6JeUe3j5zpL8yFkonIdvpZFw4ynMD9b2e1AjXt84SfikFWH9rFhS8/dbCRSlEiJIyv4ei+f4MWYsPoJSnUDIrCJyWIX/2Sy8i1LhjThMFddZUh45C4sL8K0w9neXqHV4VhiJEiR503+S/r6K7rf/AtuKOMfy8dQfQX7tr79Cq0mn7cYMAjonyY99GfOAxFl/JNLTllKcOciBqB3nMRG6h0/aHFhpRQLE9z8n65FWQj9fSePDfQIWAh2k3vwhSpeSkEUkmtxN6N2FuK9NI6BpJqHsCOYyFe63Z+HJCKJ980vMe4i//sWytlViPwstODB/achFyqMVmBqthJYtoTvbSFAFwkjzVPZWdMfBk5+Oz3oEMZCKLxsUx209lnQY7aYPmWmPELEmENYloJ6xkvb8VHw5kHB0hPYB4f0jmN9X0f3uLDwDO/brs3CbQXG8BuvNRxAWFdD0L3mXLovKVOmDFCJCn0YveP6MsQ9mivdhcXJR5kQVza1oj/f5oectDV2fj33TLLzm/pFokWSR+LNxBhFO+wEVqp6tMqPxjFIzdIRUoDjehvYUEGpDezTc7wUer3wX5/qG4aANrWsWrvlpSDpfbBTvaUa7PxY5Es2eQcevC+jKE/qNrhQGMa6k1sOi0hPMAEIOtPuCQBDdFw4UK9IvWv3xyj+++hJ7PlnFnmHLDIeK0IwEIEji/g4UgLC/Fc3Pp53vpE0puJ4uwnGjof/uXmExvgCR8dbvpeoJcquGOCau5clbNzCv92ZFa9i240E+7redngehGQgEe3LTqoiqGTkvasiDbr8TxXUxS8QQilkhmoO2HgUs4L9nCW23pSP1i+sRCZsGb3I0RGYkEAaEqhbEAFBlQ+vMI2Acf9txMSX6oBxu/4tXWHtu7CdR8ekanjvVVx2NsQ+GKdKHSWjf+yFz3hvbaS5OYFEofOHFmqy0P5mL1xBEW1ZDUpWH6LJ5tJXqLm2Ua/h8qKKi78h5vPJdiutztaKrCtO1LB1vvh9fNiirbGgdAAm4/nYhnXkqhC+PY/y9E3VaFu0PZBBSMf4X8ByR853lmCLkhqo/XvnHW19kXv5j/IVZvPBQxEFV9Rb2xJk9WRHqeccC/cNipZ8son2lAZptpP62GdFjoPPxPLwQlzt2vPUvJooxRkcKe9sQHzDiX5xGwJ9KCA+G/T0erRXzaL03naDHRfJrdWgbw/jvLsQ5VN5f9diWhSgCvV9kaIzv8DiZyn3QeLki+rDhiVuJRjWjfIEzDAS1gOM0pkdr0AZUeBcVjFK8cWDzoA6D32pE0oLg1RGYqQLCo5MvTOzGa5RE1JzfDzju69PjX7GBbrNE4v6t6ONwgZwniHZ/B4oVqXh/LOHXQOL+lpg7R6MjmKECXCQ/W03KlxBdb8U+sIlQGJUH0CUSNgDtcZ467EawAWYDgfmQtF+FNDc5/s57pPrxyg8owgAq6PsKjqL+UIzPnRtGfdoP6PDP1cEuD9FrjP0sxuCMWBYS7b9WYXrNA9m5dGkA78CmekblA77GuOuPhHU1HYtziLqqMZbv7f/RSzvY/M6OUTY4Cg6fRmvLo3PhLLoCOmhvQF8ZOxTJ1hMCFJU1pD1zCoXaSPDHFzah9MQsqrBJBDwXFhgC5Wk/KiCYZySCE2WGCWlMFu4Yv+FJ0wcNRx3v7lrFu6OsFT9Tow8LLtpA5xw9qvqdmCpHF1g0ohJVNbtRMY3ALYXYkjtQezpJfrIh5h4ZjtNOElzgN6TTfXcGBDLo+H7fec8EvA/n48mAyFxdLGv8snzazRLYbBhfahvVhVxAewtJVWHci7NoezOMviuVrr4j3BHl6y3nQQhDIH8u9pcNaDx+El8/gj7e+ujxzy/FOdtNpGYbetvw82wDUe6zkfh4Ou7SDAg5MX7SE4QVcKE5GQarDvets0iYrqL7JxlEGDB6CzvR1IehMIOO14vx10koDtWR+o6L4Lp5dBYJYEolCESzr6LjhSQUIQ9Jzx9Ht8+J4jojzuduIHoQPLfEOdkPMVfecPXjlt+N0AaY0+jYVoyvWUK9rwbjrjjrD8l43bmg2dOMeHce/ntvwGbuIPI9a0wp9BwX69woMOL/Xi7u4x0Eb8s/F0XY5wIRbDFl7Hr0BljpRnHyFKn/dDbO+nGQXoRzWRHRVgnD7r2oL6WZEuhE94Uf5xorXYB6V3MsoARQHnchkIE0P4vONRLCtXl0DlzJDqiPOlAzjcC6YmymVtQeD7qXjqP1TKPr8SwktQopByAB312FtN8URlV5HNOeU+gcWXQtLqDl1RSE7Gw8GsZgjYzxG540fdDlZfL3YSLBOSU4F5tQKytHrURHjNVTlNdg3uVE0BjpXpOLc11GLNJuJFw2TJtq0NtFXL9Ygv1OPYlfuM7fHLWIvzQX57pcunqCikLXZeFcl0vnzakXwR3hJ2lTBcbDfsILsvAk2/qHzY8kXy/tp5i2tZkEp4Dvplk4183CN2MU9dHH5g8iboQh4rKG5ZQNXX3sfxWnbOjOzT0HSXryS4xfBZHWFNKyeSZ81XZhCH/Ij+HZQyTVBwkt7Lm/i2OB9uGiWTjX5eJcaYzdb3M6netyca6bQcAAwmsVpO1yoTJn0FUEhn9vHZV7Zfj68crvwfBSDfrGCKGimPzd88X4608k+4+Q8ZINDQbcN6ei/rCBhD4dtPDal6TtcqLKy8P2/y3C42pFN4ghpflNNcavPCitGXSuy6WzxER0FPXPtaMPYZh0KSvDJH7W2jNaD5+bPwbg4FEsLzWjIY2OF66nI9+FbrBgok9qSNt+FhED3bfk4lyXRcAEGEy41+XiXNcbVKTCvyL2Tnct1oPDhvmxGnQ2Jb6VMwgerSV5kFgVgz6EYdg5vrF+w5OlD+pBFcGQHMFwqXe0msJ9GABiBIM+wlCviJzFZaLRr6blyY14G7eR/Y87JsfuFjJXFAt+XMHvftAzgVs/h7/amEXNFbJr0YSjt/P2vx2hWAUgsvvvl/OzzweWmeLfsNjGtg8PsVwFoGb3Uyv42WeXW6ipQ/H9B3n7/+kZvZ6Yw19szKK+z/Ep9z6cwyAQGWpoEI6g8IRRXLJY9mHIzsevcmDYUz6Fb/Yg6FREtcoh50gV3iCK+KevZMZB/a5r2FAdRAME3HrqL5ECjZoEokNZNeEISscU0OS+VF7ctIhYcKuK5hODlJnq37Bk4tVNi9gx3DWOhanSB4+Tmo/mseHL89/XQGfG1LRE1Ql07riFtoVDFQiS/LMy0j+8lEJ9u5A2/zmN9w69n7L4zh6yN529hBLJXFJ0WdiOFNM9lFYJ2cj4zmckOS6pVDKXCrkPPsfUVKJAqDAdaaiN+EMhhENnEeKN4pIZNdG8aQRmqoecu1ad7EBzfApYIjJjQy0g3Wjqv361LyGJhE+c5yNJZa445D44xpRVojIyMjIyMpebSZFPVEZGRkZGZioiK1EZGRkZGZkxIitRGRkZGRmZMSIrURkZGRkZmTEiK1EZGRkZGZkxIitRGRkZGRmZMSIrURkZGRkZmTEiK1EZGRkZGZkxIitRGRkZGRmZMSIrURkZGRkZmTHyfwF5wDWg0fAYggAAAABJRU5ErkJggg==;" vertex="1" parent="1">
                    <mxGeometry x="3030" y="210" width="332.14" height="50" as="geometry"/>
                </mxCell>
                <mxCell id="93" value="&lt;font color=&quot;#ff33ff&quot;&gt;&lt;b&gt;Sliding windows&lt;/b&gt;&lt;/font&gt;" style="text;html=1;align=center;verticalAlign=middle;resizable=0;points=[];autosize=1;strokeColor=none;fillColor=none;fontSize=16;fontColor=#FFFFFF;" vertex="1" parent="1">
                    <mxGeometry x="3780" y="110" width="150" height="30" as="geometry"/>
                </mxCell>
                <mxCell id="95" value="sessions_before_sliding_windows" style="rounded=1;whiteSpace=wrap;html=1;fontSize=16;fillColor=#fa6800;fontColor=#FFFFFF;strokeColor=#C73500;" vertex="1" parent="1">
                    <mxGeometry x="3430" y="10" width="270" height="20" as="geometry"/>
                </mxCell>
                <mxCell id="97" value="sessions_training_before_remove_anomalies_and_splitting.txt" style="rounded=1;whiteSpace=wrap;html=1;fontSize=16;fillColor=#fa6800;fontColor=#FFFFFF;strokeColor=#C73500;" vertex="1" parent="1">
                    <mxGeometry x="760" y="-30" width="460" height="20" as="geometry"/>
                </mxCell>
            </root>
        </mxGraphModel>
    </diagram>
</mxfile>